<svg width="378" height="135" viewBox="0 0 378 135" fill="none" xmlns="http://www.w3.org/2000/svg">
<path fill-rule="evenodd" clip-rule="evenodd" d="M35 0C21.7452 0 11 10.7452 11 24V96.25H0L11.8538 117.367C14.6437 127.532 23.9497 135 35 135H354C367.255 135 378 124.255 378 111V24C378 10.7452 367.255 0 354 0H35Z" fill="#FFD8D8"/>
<path d="M36.4037 68.8438L39.7904 56.9375H41.4311L40.4818 61.5664L36.8373 74H35.2084L36.4037 68.8438ZM32.8998 56.9375L35.5951 68.6094L36.4037 74H34.7865L30.6498 56.9375H32.8998ZM45.8139 68.5977L48.4506 56.9375H50.7123L46.5873 74H44.9701L45.8139 68.5977ZM41.6772 56.9375L44.9701 68.8438L46.1654 74H44.5365L41.0209 61.5664L40.06 56.9375H41.6772ZM57.7787 74.2344C56.8959 74.2344 56.0951 74.0859 55.3764 73.7891C54.6654 73.4844 54.0522 73.0586 53.5365 72.5117C53.0287 71.9648 52.6381 71.3164 52.3647 70.5664C52.0912 69.8164 51.9545 68.9961 51.9545 68.1055V67.6133C51.9545 66.582 52.1068 65.6641 52.4115 64.8594C52.7162 64.0469 53.1303 63.3594 53.6537 62.7969C54.1772 62.2344 54.7709 61.8086 55.435 61.5195C56.099 61.2305 56.7865 61.0859 57.4975 61.0859C58.4037 61.0859 59.185 61.2422 59.8412 61.5547C60.5053 61.8672 61.0482 62.3047 61.4701 62.8672C61.892 63.4219 62.2045 64.0781 62.4076 64.8359C62.6107 65.5859 62.7123 66.4062 62.7123 67.2969V68.2695H53.2436V66.5H60.5443V66.3359C60.5131 65.7734 60.3959 65.2266 60.1928 64.6953C59.9975 64.1641 59.685 63.7266 59.2553 63.3828C58.8256 63.0391 58.2397 62.8672 57.4975 62.8672C57.0053 62.8672 56.5522 62.9727 56.1381 63.1836C55.724 63.3867 55.3686 63.6914 55.0717 64.0977C54.7748 64.5039 54.5443 65 54.3803 65.5859C54.2162 66.1719 54.1342 66.8477 54.1342 67.6133V68.1055C54.1342 68.707 54.2162 69.2734 54.3803 69.8047C54.5522 70.3281 54.7982 70.7891 55.1186 71.1875C55.4467 71.5859 55.8412 71.8984 56.3022 72.125C56.7709 72.3516 57.3022 72.4648 57.8959 72.4648C58.6615 72.4648 59.31 72.3086 59.8412 71.9961C60.3725 71.6836 60.8373 71.2656 61.2357 70.7422L62.5482 71.7852C62.2748 72.1992 61.9272 72.5938 61.5053 72.9688C61.0834 73.3438 60.5639 73.6484 59.9467 73.8828C59.3373 74.1172 58.6147 74.2344 57.7787 74.2344ZM67.599 56V74H65.4193V56H67.599ZM76.1537 72.4531C76.6693 72.4531 77.1459 72.3477 77.5834 72.1367C78.0209 71.9258 78.3803 71.6367 78.6615 71.2695C78.9428 70.8945 79.1029 70.4688 79.142 69.9922H81.2045C81.1654 70.7422 80.9115 71.4414 80.4428 72.0898C79.9818 72.7305 79.3764 73.25 78.6264 73.6484C77.8764 74.0391 77.0522 74.2344 76.1537 74.2344C75.2006 74.2344 74.3686 74.0664 73.6576 73.7305C72.9545 73.3945 72.3686 72.9336 71.8998 72.3477C71.4389 71.7617 71.0912 71.0898 70.8568 70.332C70.6303 69.5664 70.517 68.7578 70.517 67.9062V67.4141C70.517 66.5625 70.6303 65.7578 70.8568 65C71.0912 64.2344 71.4389 63.5586 71.8998 62.9727C72.3686 62.3867 72.9545 61.9258 73.6576 61.5898C74.3686 61.2539 75.2006 61.0859 76.1537 61.0859C77.1459 61.0859 78.0131 61.2891 78.7553 61.6953C79.4975 62.0938 80.0795 62.6406 80.5014 63.3359C80.9311 64.0234 81.1654 64.8047 81.2045 65.6797H79.142C79.1029 65.1562 78.9545 64.6836 78.6967 64.2617C78.4467 63.8398 78.1029 63.5039 77.6654 63.2539C77.2357 62.9961 76.7318 62.8672 76.1537 62.8672C75.4897 62.8672 74.9311 63 74.4779 63.2656C74.0326 63.5234 73.6772 63.875 73.4115 64.3203C73.1537 64.7578 72.9662 65.2461 72.849 65.7852C72.7397 66.3164 72.685 66.8594 72.685 67.4141V67.9062C72.685 68.4609 72.7397 69.0078 72.849 69.5469C72.9584 70.0859 73.142 70.5742 73.3998 71.0117C73.6654 71.4492 74.0209 71.8008 74.4662 72.0664C74.9193 72.3242 75.4818 72.4531 76.1537 72.4531ZM83.0678 67.8008V67.5312C83.0678 66.6172 83.2006 65.7695 83.4662 64.9883C83.7318 64.1992 84.1147 63.5156 84.6147 62.9375C85.1147 62.3516 85.7201 61.8984 86.4311 61.5781C87.142 61.25 87.9389 61.0859 88.8217 61.0859C89.7123 61.0859 90.5131 61.25 91.224 61.5781C91.9428 61.8984 92.5522 62.3516 93.0522 62.9375C93.56 63.5156 93.9467 64.1992 94.2123 64.9883C94.4779 65.7695 94.6107 66.6172 94.6107 67.5312V67.8008C94.6107 68.7148 94.4779 69.5625 94.2123 70.3438C93.9467 71.125 93.56 71.8086 93.0522 72.3945C92.5522 72.9727 91.9467 73.4258 91.2357 73.7539C90.5326 74.0742 89.7357 74.2344 88.8451 74.2344C87.9545 74.2344 87.1537 74.0742 86.4428 73.7539C85.7318 73.4258 85.1225 72.9727 84.6147 72.3945C84.1147 71.8086 83.7318 71.125 83.4662 70.3438C83.2006 69.5625 83.0678 68.7148 83.0678 67.8008ZM85.2357 67.5312V67.8008C85.2357 68.4336 85.31 69.0312 85.4584 69.5938C85.6068 70.1484 85.8295 70.6406 86.1264 71.0703C86.4311 71.5 86.81 71.8398 87.2631 72.0898C87.7162 72.332 88.2436 72.4531 88.8451 72.4531C89.4389 72.4531 89.9584 72.332 90.4037 72.0898C90.8568 71.8398 91.2318 71.5 91.5287 71.0703C91.8256 70.6406 92.0482 70.1484 92.1967 69.5938C92.3529 69.0312 92.4311 68.4336 92.4311 67.8008V67.5312C92.4311 66.9062 92.3529 66.3164 92.1967 65.7617C92.0482 65.1992 91.8217 64.7031 91.517 64.2734C91.2201 63.8359 90.8451 63.4922 90.392 63.2422C89.9467 62.9922 89.4232 62.8672 88.8217 62.8672C88.2279 62.8672 87.7045 62.9922 87.2514 63.2422C86.8061 63.4922 86.4311 63.8359 86.1264 64.2734C85.8295 64.7031 85.6068 65.1992 85.4584 65.7617C85.31 66.3164 85.2357 66.9062 85.2357 67.5312ZM99.4857 63.8398V74H97.3061V61.3203H99.3686L99.4857 63.8398ZM99.0404 67.1797L98.0326 67.1445C98.0404 66.2773 98.1537 65.4766 98.3725 64.7422C98.5912 64 98.9154 63.3555 99.3451 62.8086C99.7748 62.2617 100.31 61.8398 100.951 61.543C101.591 61.2383 102.333 61.0859 103.177 61.0859C103.771 61.0859 104.318 61.1719 104.818 61.3438C105.318 61.5078 105.751 61.7695 106.119 62.1289C106.486 62.4883 106.771 62.9492 106.974 63.5117C107.177 64.0742 107.279 64.7539 107.279 65.5508V74H105.111V65.6562C105.111 64.9922 104.997 64.4609 104.771 64.0625C104.552 63.6641 104.24 63.375 103.833 63.1953C103.427 63.0078 102.951 62.9141 102.404 62.9141C101.763 62.9141 101.228 63.0273 100.798 63.2539C100.369 63.4805 100.025 63.793 99.767 64.1914C99.5092 64.5898 99.3217 65.0469 99.2045 65.5625C99.0951 66.0703 99.0404 66.6094 99.0404 67.1797ZM107.255 65.9844L105.802 66.4297C105.81 65.7344 105.923 65.0664 106.142 64.4258C106.369 63.7852 106.693 63.2148 107.115 62.7148C107.544 62.2148 108.072 61.8203 108.697 61.5312C109.322 61.2344 110.037 61.0859 110.841 61.0859C111.521 61.0859 112.122 61.1758 112.646 61.3555C113.177 61.5352 113.622 61.8125 113.982 62.1875C114.349 62.5547 114.626 63.0273 114.814 63.6055C115.001 64.1836 115.095 64.8711 115.095 65.668V74H112.915V65.6445C112.915 64.9336 112.802 64.3828 112.576 63.9922C112.357 63.5938 112.044 63.3164 111.638 63.1602C111.24 62.9961 110.763 62.9141 110.208 62.9141C109.732 62.9141 109.31 62.9961 108.943 63.1602C108.576 63.3242 108.267 63.5508 108.017 63.8398C107.767 64.1211 107.576 64.4453 107.443 64.8125C107.318 65.1797 107.255 65.5703 107.255 65.9844ZM123.638 74.2344C122.755 74.2344 121.954 74.0859 121.236 73.7891C120.525 73.4844 119.912 73.0586 119.396 72.5117C118.888 71.9648 118.497 71.3164 118.224 70.5664C117.951 69.8164 117.814 68.9961 117.814 68.1055V67.6133C117.814 66.582 117.966 65.6641 118.271 64.8594C118.576 64.0469 118.99 63.3594 119.513 62.7969C120.037 62.2344 120.63 61.8086 121.294 61.5195C121.958 61.2305 122.646 61.0859 123.357 61.0859C124.263 61.0859 125.044 61.2422 125.701 61.5547C126.365 61.8672 126.908 62.3047 127.329 62.8672C127.751 63.4219 128.064 64.0781 128.267 64.8359C128.47 65.5859 128.572 66.4062 128.572 67.2969V68.2695H119.103V66.5H126.404V66.3359C126.372 65.7734 126.255 65.2266 126.052 64.6953C125.857 64.1641 125.544 63.7266 125.115 63.3828C124.685 63.0391 124.099 62.8672 123.357 62.8672C122.865 62.8672 122.412 62.9727 121.997 63.1836C121.583 63.3867 121.228 63.6914 120.931 64.0977C120.634 64.5039 120.404 65 120.24 65.5859C120.076 66.1719 119.994 66.8477 119.994 67.6133V68.1055C119.994 68.707 120.076 69.2734 120.24 69.8047C120.412 70.3281 120.658 70.7891 120.978 71.1875C121.306 71.5859 121.701 71.8984 122.162 72.125C122.63 72.3516 123.162 72.4648 123.755 72.4648C124.521 72.4648 125.169 72.3086 125.701 71.9961C126.232 71.6836 126.697 71.2656 127.095 70.7422L128.408 71.7852C128.134 72.1992 127.787 72.5938 127.365 72.9688C126.943 73.3438 126.423 73.6484 125.806 73.8828C125.197 74.1172 124.474 74.2344 123.638 74.2344ZM144.533 71.832V65.3047C144.533 64.8047 144.431 64.3711 144.228 64.0039C144.033 63.6289 143.736 63.3398 143.337 63.1367C142.939 62.9336 142.447 62.832 141.861 62.832C141.314 62.832 140.833 62.9258 140.419 63.1133C140.013 63.3008 139.693 63.5469 139.458 63.8516C139.232 64.1562 139.119 64.4844 139.119 64.8359H136.951C136.951 64.3828 137.068 63.9336 137.302 63.4883C137.537 63.043 137.872 62.6406 138.31 62.2812C138.755 61.9141 139.287 61.625 139.904 61.4141C140.529 61.1953 141.224 61.0859 141.99 61.0859C142.912 61.0859 143.724 61.2422 144.427 61.5547C145.138 61.8672 145.693 62.3398 146.091 62.9727C146.497 63.5977 146.701 64.3828 146.701 65.3281V71.2344C146.701 71.6562 146.736 72.1055 146.806 72.582C146.884 73.0586 146.997 73.4688 147.146 73.8125V74H144.884C144.775 73.75 144.689 73.418 144.626 73.0039C144.564 72.582 144.533 72.1914 144.533 71.832ZM144.908 66.3125L144.931 67.8359H142.74C142.122 67.8359 141.572 67.8867 141.087 67.9883C140.603 68.082 140.197 68.2266 139.869 68.4219C139.54 68.6172 139.29 68.8633 139.119 69.1602C138.947 69.4492 138.861 69.7891 138.861 70.1797C138.861 70.5781 138.951 70.9414 139.13 71.2695C139.31 71.5977 139.579 71.8594 139.939 72.0547C140.306 72.2422 140.755 72.3359 141.287 72.3359C141.951 72.3359 142.537 72.1953 143.044 71.9141C143.552 71.6328 143.954 71.2891 144.251 70.8828C144.556 70.4766 144.72 70.082 144.744 69.6992L145.669 70.7422C145.615 71.0703 145.466 71.4336 145.224 71.832C144.982 72.2305 144.658 72.6133 144.251 72.9805C143.853 73.3398 143.376 73.6406 142.822 73.8828C142.275 74.1172 141.658 74.2344 140.97 74.2344C140.111 74.2344 139.357 74.0664 138.708 73.7305C138.068 73.3945 137.568 72.9453 137.208 72.3828C136.857 71.8125 136.681 71.1758 136.681 70.4727C136.681 69.793 136.814 69.1953 137.079 68.6797C137.345 68.1562 137.728 67.7227 138.228 67.3789C138.728 67.0273 139.329 66.7617 140.033 66.582C140.736 66.4023 141.521 66.3125 142.388 66.3125H144.908ZM150.099 56H152.279V71.5391L152.091 74H150.099V56ZM160.845 67.5547V67.8008C160.845 68.7227 160.736 69.5781 160.517 70.3672C160.298 71.1484 159.978 71.8281 159.556 72.4062C159.134 72.9844 158.619 73.4336 158.009 73.7539C157.4 74.0742 156.701 74.2344 155.912 74.2344C155.107 74.2344 154.4 74.0977 153.79 73.8242C153.189 73.543 152.681 73.1406 152.267 72.6172C151.853 72.0938 151.521 71.4609 151.271 70.7188C151.029 69.9766 150.861 69.1406 150.767 68.2109V67.1328C150.861 66.1953 151.029 65.3555 151.271 64.6133C151.521 63.8711 151.853 63.2383 152.267 62.7148C152.681 62.1836 153.189 61.7812 153.79 61.5078C154.392 61.2266 155.091 61.0859 155.888 61.0859C156.685 61.0859 157.392 61.2422 158.009 61.5547C158.626 61.8594 159.142 62.2969 159.556 62.8672C159.978 63.4375 160.298 64.1211 160.517 64.918C160.736 65.707 160.845 66.5859 160.845 67.5547ZM158.665 67.8008V67.5547C158.665 66.9219 158.607 66.3281 158.49 65.7734C158.372 65.2109 158.185 64.7188 157.927 64.2969C157.669 63.8672 157.329 63.5312 156.908 63.2891C156.486 63.0391 155.966 62.9141 155.349 62.9141C154.802 62.9141 154.326 63.0078 153.919 63.1953C153.521 63.3828 153.181 63.6367 152.9 63.957C152.619 64.2695 152.388 64.6289 152.208 65.0352C152.037 65.4336 151.908 65.8477 151.822 66.2773V69.1016C151.947 69.6484 152.15 70.1758 152.431 70.6836C152.72 71.1836 153.103 71.5938 153.579 71.9141C154.064 72.2344 154.662 72.3945 155.372 72.3945C155.958 72.3945 156.458 72.2773 156.872 72.043C157.294 71.8008 157.634 71.4688 157.892 71.0469C158.158 70.625 158.353 70.1367 158.478 69.582C158.603 69.0273 158.665 68.4336 158.665 67.8008ZM163.013 67.8008V67.5312C163.013 66.6172 163.146 65.7695 163.412 64.9883C163.677 64.1992 164.06 63.5156 164.56 62.9375C165.06 62.3516 165.665 61.8984 166.376 61.5781C167.087 61.25 167.884 61.0859 168.767 61.0859C169.658 61.0859 170.458 61.25 171.169 61.5781C171.888 61.8984 172.497 62.3516 172.997 62.9375C173.505 63.5156 173.892 64.1992 174.158 64.9883C174.423 65.7695 174.556 66.6172 174.556 67.5312V67.8008C174.556 68.7148 174.423 69.5625 174.158 70.3438C173.892 71.125 173.505 71.8086 172.997 72.3945C172.497 72.9727 171.892 73.4258 171.181 73.7539C170.478 74.0742 169.681 74.2344 168.79 74.2344C167.9 74.2344 167.099 74.0742 166.388 73.7539C165.677 73.4258 165.068 72.9727 164.56 72.3945C164.06 71.8086 163.677 71.125 163.412 70.3438C163.146 69.5625 163.013 68.7148 163.013 67.8008ZM165.181 67.5312V67.8008C165.181 68.4336 165.255 69.0312 165.404 69.5938C165.552 70.1484 165.775 70.6406 166.072 71.0703C166.376 71.5 166.755 71.8398 167.208 72.0898C167.662 72.332 168.189 72.4531 168.79 72.4531C169.384 72.4531 169.904 72.332 170.349 72.0898C170.802 71.8398 171.177 71.5 171.474 71.0703C171.771 70.6406 171.994 70.1484 172.142 69.5938C172.298 69.0312 172.376 68.4336 172.376 67.8008V67.5312C172.376 66.9062 172.298 66.3164 172.142 65.7617C171.994 65.1992 171.767 64.7031 171.462 64.2734C171.165 63.8359 170.79 63.4922 170.337 63.2422C169.892 62.9922 169.369 62.8672 168.767 62.8672C168.173 62.8672 167.65 62.9922 167.197 63.2422C166.751 63.4922 166.376 63.8359 166.072 64.2734C165.775 64.7031 165.552 65.1992 165.404 65.7617C165.255 66.3164 165.181 66.9062 165.181 67.5312ZM184.751 71.832V65.3047C184.751 64.8047 184.65 64.3711 184.447 64.0039C184.251 63.6289 183.954 63.3398 183.556 63.1367C183.158 62.9336 182.665 62.832 182.079 62.832C181.533 62.832 181.052 62.9258 180.638 63.1133C180.232 63.3008 179.912 63.5469 179.677 63.8516C179.451 64.1562 179.337 64.4844 179.337 64.8359H177.169C177.169 64.3828 177.287 63.9336 177.521 63.4883C177.755 63.043 178.091 62.6406 178.529 62.2812C178.974 61.9141 179.505 61.625 180.122 61.4141C180.747 61.1953 181.443 61.0859 182.208 61.0859C183.13 61.0859 183.943 61.2422 184.646 61.5547C185.357 61.8672 185.912 62.3398 186.31 62.9727C186.716 63.5977 186.919 64.3828 186.919 65.3281V71.2344C186.919 71.6562 186.954 72.1055 187.025 72.582C187.103 73.0586 187.216 73.4688 187.365 73.8125V74H185.103C184.994 73.75 184.908 73.418 184.845 73.0039C184.783 72.582 184.751 72.1914 184.751 71.832ZM185.126 66.3125L185.15 67.8359H182.958C182.341 67.8359 181.79 67.8867 181.306 67.9883C180.822 68.082 180.415 68.2266 180.087 68.4219C179.759 68.6172 179.509 68.8633 179.337 69.1602C179.165 69.4492 179.079 69.7891 179.079 70.1797C179.079 70.5781 179.169 70.9414 179.349 71.2695C179.529 71.5977 179.798 71.8594 180.158 72.0547C180.525 72.2422 180.974 72.3359 181.505 72.3359C182.169 72.3359 182.755 72.1953 183.263 71.9141C183.771 71.6328 184.173 71.2891 184.47 70.8828C184.775 70.4766 184.939 70.082 184.962 69.6992L185.888 70.7422C185.833 71.0703 185.685 71.4336 185.443 71.832C185.201 72.2305 184.876 72.6133 184.47 72.9805C184.072 73.3398 183.595 73.6406 183.04 73.8828C182.494 74.1172 181.876 74.2344 181.189 74.2344C180.329 74.2344 179.576 74.0664 178.927 73.7305C178.287 73.3945 177.787 72.9453 177.427 72.3828C177.076 71.8125 176.9 71.1758 176.9 70.4727C176.9 69.793 177.033 69.1953 177.298 68.6797C177.564 68.1562 177.947 67.7227 178.447 67.3789C178.947 67.0273 179.548 66.7617 180.251 66.582C180.954 66.4023 181.74 66.3125 182.607 66.3125H185.126ZM192.497 63.3125V74H190.329V61.3203H192.439L192.497 63.3125ZM196.458 61.25L196.447 63.2656C196.267 63.2266 196.095 63.2031 195.931 63.1953C195.775 63.1797 195.595 63.1719 195.392 63.1719C194.892 63.1719 194.451 63.25 194.068 63.4062C193.685 63.5625 193.361 63.7812 193.095 64.0625C192.829 64.3438 192.619 64.6797 192.462 65.0703C192.314 65.4531 192.216 65.875 192.169 66.3359L191.56 66.6875C191.56 65.9219 191.634 65.2031 191.783 64.5312C191.939 63.8594 192.177 63.2656 192.497 62.75C192.818 62.2266 193.224 61.8203 193.716 61.5312C194.216 61.2344 194.81 61.0859 195.497 61.0859C195.654 61.0859 195.833 61.1055 196.037 61.1445C196.24 61.1758 196.38 61.2109 196.458 61.25ZM206.22 71.5391V56H208.4V74H206.408L206.22 71.5391ZM197.689 67.8008V67.5547C197.689 66.5859 197.806 65.707 198.04 64.918C198.283 64.1211 198.622 63.4375 199.06 62.8672C199.505 62.2969 200.033 61.8594 200.642 61.5547C201.259 61.2422 201.947 61.0859 202.704 61.0859C203.501 61.0859 204.197 61.2266 204.79 61.5078C205.392 61.7812 205.9 62.1836 206.314 62.7148C206.736 63.2383 207.068 63.8711 207.31 64.6133C207.552 65.3555 207.72 66.1953 207.814 67.1328V68.2109C207.728 69.1406 207.56 69.9766 207.31 70.7188C207.068 71.4609 206.736 72.0938 206.314 72.6172C205.9 73.1406 205.392 73.543 204.79 73.8242C204.189 74.0977 203.486 74.2344 202.681 74.2344C201.939 74.2344 201.259 74.0742 200.642 73.7539C200.033 73.4336 199.505 72.9844 199.06 72.4062C198.622 71.8281 198.283 71.1484 198.04 70.3672C197.806 69.5781 197.689 68.7227 197.689 67.8008ZM199.869 67.5547V67.8008C199.869 68.4336 199.931 69.0273 200.056 69.582C200.189 70.1367 200.392 70.625 200.665 71.0469C200.939 71.4688 201.287 71.8008 201.708 72.043C202.13 72.2773 202.634 72.3945 203.22 72.3945C203.939 72.3945 204.529 72.2422 204.99 71.9375C205.458 71.6328 205.833 71.2305 206.115 70.7305C206.396 70.2305 206.615 69.6875 206.771 69.1016V66.2773C206.677 65.8477 206.54 65.4336 206.361 65.0352C206.189 64.6289 205.962 64.2695 205.681 63.957C205.408 63.6367 205.068 63.3828 204.662 63.1953C204.263 63.0078 203.79 62.9141 203.244 62.9141C202.65 62.9141 202.138 63.0391 201.708 63.2891C201.287 63.5312 200.939 63.8672 200.665 64.2969C200.392 64.7188 200.189 65.2109 200.056 65.7734C199.931 66.3281 199.869 66.9219 199.869 67.5547ZM214.353 56.9375L214.201 69.1836H212.244L212.079 56.9375H214.353ZM212.009 72.9102C212.009 72.5586 212.115 72.2617 212.326 72.0195C212.544 71.7773 212.865 71.6562 213.287 71.6562C213.701 71.6562 214.017 71.7773 214.236 72.0195C214.462 72.2617 214.576 72.5586 214.576 72.9102C214.576 73.2461 214.462 73.5352 214.236 73.7773C214.017 74.0195 213.701 74.1406 213.287 74.1406C212.865 74.1406 212.544 74.0195 212.326 73.7773C212.115 73.5352 212.009 73.2461 212.009 72.9102ZM224.958 56.9375H227.15L232.74 70.8477L238.318 56.9375H240.521L233.583 74H231.872L224.958 56.9375ZM224.244 56.9375H226.177L226.494 67.3438V74H224.244V56.9375ZM239.29 56.9375H241.224V74H238.974V67.3438L239.29 56.9375ZM252.345 71.832V65.3047C252.345 64.8047 252.244 64.3711 252.04 64.0039C251.845 63.6289 251.548 63.3398 251.15 63.1367C250.751 62.9336 250.259 62.832 249.673 62.832C249.126 62.832 248.646 62.9258 248.232 63.1133C247.826 63.3008 247.505 63.5469 247.271 63.8516C247.044 64.1562 246.931 64.4844 246.931 64.8359H244.763C244.763 64.3828 244.88 63.9336 245.115 63.4883C245.349 63.043 245.685 62.6406 246.122 62.2812C246.568 61.9141 247.099 61.625 247.716 61.4141C248.341 61.1953 249.037 61.0859 249.802 61.0859C250.724 61.0859 251.537 61.2422 252.24 61.5547C252.951 61.8672 253.505 62.3398 253.904 62.9727C254.31 63.5977 254.513 64.3828 254.513 65.3281V71.2344C254.513 71.6562 254.548 72.1055 254.619 72.582C254.697 73.0586 254.81 73.4688 254.958 73.8125V74H252.697C252.587 73.75 252.501 73.418 252.439 73.0039C252.376 72.582 252.345 72.1914 252.345 71.832ZM252.72 66.3125L252.744 67.8359H250.552C249.935 67.8359 249.384 67.8867 248.9 67.9883C248.415 68.082 248.009 68.2266 247.681 68.4219C247.353 68.6172 247.103 68.8633 246.931 69.1602C246.759 69.4492 246.673 69.7891 246.673 70.1797C246.673 70.5781 246.763 70.9414 246.943 71.2695C247.122 71.5977 247.392 71.8594 247.751 72.0547C248.119 72.2422 248.568 72.3359 249.099 72.3359C249.763 72.3359 250.349 72.1953 250.857 71.9141C251.365 71.6328 251.767 71.2891 252.064 70.8828C252.369 70.4766 252.533 70.082 252.556 69.6992L253.482 70.7422C253.427 71.0703 253.279 71.4336 253.037 71.832C252.794 72.2305 252.47 72.6133 252.064 72.9805C251.665 73.3398 251.189 73.6406 250.634 73.8828C250.087 74.1172 249.47 74.2344 248.783 74.2344C247.923 74.2344 247.169 74.0664 246.521 73.7305C245.88 73.3945 245.38 72.9453 245.021 72.3828C244.669 71.8125 244.494 71.1758 244.494 70.4727C244.494 69.793 244.626 69.1953 244.892 68.6797C245.158 68.1562 245.54 67.7227 246.04 67.3789C246.54 67.0273 247.142 66.7617 247.845 66.582C248.548 66.4023 249.333 66.3125 250.201 66.3125H252.72ZM261.298 72.6875L264.826 61.3203H267.146L262.06 75.957C261.943 76.2695 261.787 76.6055 261.591 76.9648C261.404 77.332 261.162 77.6797 260.865 78.0078C260.568 78.3359 260.208 78.6016 259.787 78.8047C259.372 79.0156 258.876 79.1211 258.298 79.1211C258.126 79.1211 257.908 79.0977 257.642 79.0508C257.376 79.0039 257.189 78.9648 257.079 78.9336L257.068 77.1758C257.13 77.1836 257.228 77.1914 257.361 77.1992C257.501 77.2148 257.599 77.2227 257.654 77.2227C258.146 77.2227 258.564 77.1562 258.908 77.0234C259.251 76.8984 259.54 76.6836 259.775 76.3789C260.017 76.082 260.224 75.6719 260.396 75.1484L261.298 72.6875ZM258.708 61.3203L262.001 71.1641L262.564 73.4492L261.005 74.2461L256.341 61.3203H258.708ZM277.81 56.9375V74H275.548V56.9375H277.81ZM294.931 70.6367C294.931 70.3242 294.861 70.0352 294.72 69.7695C294.587 69.4961 294.31 69.25 293.888 69.0312C293.474 68.8047 292.849 68.6094 292.013 68.4453C291.31 68.2969 290.673 68.1211 290.103 67.918C289.54 67.7148 289.06 67.4688 288.662 67.1797C288.271 66.8906 287.97 66.5508 287.759 66.1602C287.548 65.7695 287.443 65.3125 287.443 64.7891C287.443 64.2891 287.552 63.8164 287.771 63.3711C287.997 62.9258 288.314 62.5312 288.72 62.1875C289.134 61.8438 289.63 61.5742 290.208 61.3789C290.787 61.1836 291.431 61.0859 292.142 61.0859C293.158 61.0859 294.025 61.2656 294.744 61.625C295.462 61.9844 296.013 62.4648 296.396 63.0664C296.779 63.6602 296.97 64.3203 296.97 65.0469H294.802C294.802 64.6953 294.697 64.3555 294.486 64.0273C294.283 63.6914 293.982 63.4141 293.583 63.1953C293.193 62.9766 292.712 62.8672 292.142 62.8672C291.54 62.8672 291.052 62.9609 290.677 63.1484C290.31 63.3281 290.04 63.5586 289.869 63.8398C289.704 64.1211 289.622 64.418 289.622 64.7305C289.622 64.9648 289.662 65.1758 289.74 65.3633C289.826 65.543 289.974 65.7109 290.185 65.8672C290.396 66.0156 290.693 66.1562 291.076 66.2891C291.458 66.4219 291.947 66.5547 292.54 66.6875C293.579 66.9219 294.435 67.2031 295.107 67.5312C295.779 67.8594 296.279 68.2617 296.607 68.7383C296.935 69.2148 297.099 69.793 297.099 70.4727C297.099 71.0273 296.982 71.5352 296.747 71.9961C296.521 72.457 296.189 72.8555 295.751 73.1914C295.322 73.5195 294.806 73.7773 294.204 73.9648C293.611 74.1445 292.943 74.2344 292.201 74.2344C291.083 74.2344 290.138 74.0352 289.365 73.6367C288.591 73.2383 288.005 72.7227 287.607 72.0898C287.208 71.457 287.009 70.7891 287.009 70.0859H289.189C289.22 70.6797 289.392 71.1523 289.704 71.5039C290.017 71.8477 290.4 72.0938 290.853 72.2422C291.306 72.3828 291.755 72.4531 292.201 72.4531C292.794 72.4531 293.29 72.375 293.689 72.2188C294.095 72.0625 294.404 71.8477 294.615 71.5742C294.826 71.3008 294.931 70.9883 294.931 70.6367ZM305.208 74.2344C304.326 74.2344 303.525 74.0859 302.806 73.7891C302.095 73.4844 301.482 73.0586 300.966 72.5117C300.458 71.9648 300.068 71.3164 299.794 70.5664C299.521 69.8164 299.384 68.9961 299.384 68.1055V67.6133C299.384 66.582 299.537 65.6641 299.841 64.8594C300.146 64.0469 300.56 63.3594 301.083 62.7969C301.607 62.2344 302.201 61.8086 302.865 61.5195C303.529 61.2305 304.216 61.0859 304.927 61.0859C305.833 61.0859 306.615 61.2422 307.271 61.5547C307.935 61.8672 308.478 62.3047 308.9 62.8672C309.322 63.4219 309.634 64.0781 309.837 64.8359C310.04 65.5859 310.142 66.4062 310.142 67.2969V68.2695H300.673V66.5H307.974V66.3359C307.943 65.7734 307.826 65.2266 307.622 64.6953C307.427 64.1641 307.115 63.7266 306.685 63.3828C306.255 63.0391 305.669 62.8672 304.927 62.8672C304.435 62.8672 303.982 62.9727 303.568 63.1836C303.154 63.3867 302.798 63.6914 302.501 64.0977C302.204 64.5039 301.974 65 301.81 65.5859C301.646 66.1719 301.564 66.8477 301.564 67.6133V68.1055C301.564 68.707 301.646 69.2734 301.81 69.8047C301.982 70.3281 302.228 70.7891 302.548 71.1875C302.876 71.5859 303.271 71.8984 303.732 72.125C304.201 72.3516 304.732 72.4648 305.326 72.4648C306.091 72.4648 306.74 72.3086 307.271 71.9961C307.802 71.6836 308.267 71.2656 308.665 70.7422L309.978 71.7852C309.704 72.1992 309.357 72.5938 308.935 72.9688C308.513 73.3438 307.994 73.6484 307.376 73.8828C306.767 74.1172 306.044 74.2344 305.208 74.2344ZM317.935 74.2344C317.052 74.2344 316.251 74.0859 315.533 73.7891C314.822 73.4844 314.208 73.0586 313.693 72.5117C313.185 71.9648 312.794 71.3164 312.521 70.5664C312.247 69.8164 312.111 68.9961 312.111 68.1055V67.6133C312.111 66.582 312.263 65.6641 312.568 64.8594C312.872 64.0469 313.287 63.3594 313.81 62.7969C314.333 62.2344 314.927 61.8086 315.591 61.5195C316.255 61.2305 316.943 61.0859 317.654 61.0859C318.56 61.0859 319.341 61.2422 319.997 61.5547C320.662 61.8672 321.204 62.3047 321.626 62.8672C322.048 63.4219 322.361 64.0781 322.564 64.8359C322.767 65.5859 322.869 66.4062 322.869 67.2969V68.2695H313.4V66.5H320.701V66.3359C320.669 65.7734 320.552 65.2266 320.349 64.6953C320.154 64.1641 319.841 63.7266 319.412 63.3828C318.982 63.0391 318.396 62.8672 317.654 62.8672C317.162 62.8672 316.708 62.9727 316.294 63.1836C315.88 63.3867 315.525 63.6914 315.228 64.0977C314.931 64.5039 314.701 65 314.537 65.5859C314.372 66.1719 314.29 66.8477 314.29 67.6133V68.1055C314.29 68.707 314.372 69.2734 314.537 69.8047C314.708 70.3281 314.954 70.7891 315.275 71.1875C315.603 71.5859 315.997 71.8984 316.458 72.125C316.927 72.3516 317.458 72.4648 318.052 72.4648C318.818 72.4648 319.466 72.3086 319.997 71.9961C320.529 71.6836 320.994 71.2656 321.392 70.7422L322.704 71.7852C322.431 72.1992 322.083 72.5938 321.662 72.9688C321.24 73.3438 320.72 73.6484 320.103 73.8828C319.494 74.1172 318.771 74.2344 317.935 74.2344ZM35.1498 100.688L38.6772 89.3203H40.9975L35.9115 103.957C35.7943 104.27 35.6381 104.605 35.4428 104.965C35.2553 105.332 35.0131 105.68 34.7162 106.008C34.4193 106.336 34.06 106.602 33.6381 106.805C33.224 107.016 32.7279 107.121 32.1498 107.121C31.9779 107.121 31.7592 107.098 31.4936 107.051C31.2279 107.004 31.0404 106.965 30.9311 106.934L30.9193 105.176C30.9818 105.184 31.0795 105.191 31.2123 105.199C31.3529 105.215 31.4506 105.223 31.5053 105.223C31.9975 105.223 32.4154 105.156 32.7592 105.023C33.1029 104.898 33.392 104.684 33.6264 104.379C33.8686 104.082 34.0756 103.672 34.2475 103.148L35.1498 100.688ZM32.56 89.3203L35.8529 99.1641L36.4154 101.449L34.8568 102.246L30.1928 89.3203H32.56ZM42.1928 95.8008V95.5312C42.1928 94.6172 42.3256 93.7695 42.5912 92.9883C42.8568 92.1992 43.2397 91.5156 43.7397 90.9375C44.2397 90.3516 44.8451 89.8984 45.5561 89.5781C46.267 89.25 47.0639 89.0859 47.9467 89.0859C48.8373 89.0859 49.6381 89.25 50.349 89.5781C51.0678 89.8984 51.6772 90.3516 52.1772 90.9375C52.685 91.5156 53.0717 92.1992 53.3373 92.9883C53.6029 93.7695 53.7357 94.6172 53.7357 95.5312V95.8008C53.7357 96.7148 53.6029 97.5625 53.3373 98.3438C53.0717 99.125 52.685 99.8086 52.1772 100.395C51.6772 100.973 51.0717 101.426 50.3607 101.754C49.6576 102.074 48.8607 102.234 47.9701 102.234C47.0795 102.234 46.2787 102.074 45.5678 101.754C44.8568 101.426 44.2475 100.973 43.7397 100.395C43.2397 99.8086 42.8568 99.125 42.5912 98.3438C42.3256 97.5625 42.1928 96.7148 42.1928 95.8008ZM44.3607 95.5312V95.8008C44.3607 96.4336 44.435 97.0312 44.5834 97.5938C44.7318 98.1484 44.9545 98.6406 45.2514 99.0703C45.5561 99.5 45.935 99.8398 46.3881 100.09C46.8412 100.332 47.3686 100.453 47.9701 100.453C48.5639 100.453 49.0834 100.332 49.5287 100.09C49.9818 99.8398 50.3568 99.5 50.6537 99.0703C50.9506 98.6406 51.1732 98.1484 51.3217 97.5938C51.4779 97.0312 51.5561 96.4336 51.5561 95.8008V95.5312C51.5561 94.9062 51.4779 94.3164 51.3217 93.7617C51.1732 93.1992 50.9467 92.7031 50.642 92.2734C50.3451 91.8359 49.9701 91.4922 49.517 91.2422C49.0717 90.9922 48.5482 90.8672 47.9467 90.8672C47.3529 90.8672 46.8295 90.9922 46.3764 91.2422C45.9311 91.4922 45.5561 91.8359 45.2514 92.2734C44.9545 92.7031 44.7318 93.1992 44.5834 93.7617C44.435 94.3164 44.3607 94.9062 44.3607 95.5312ZM64.2123 99.0703V89.3203H66.392V102H64.3178L64.2123 99.0703ZM64.6225 96.3984L65.5248 96.375C65.5248 97.2188 65.435 98 65.2553 98.7188C65.0834 99.4297 64.8022 100.047 64.4115 100.57C64.0209 101.094 63.5092 101.504 62.8764 101.801C62.2436 102.09 61.474 102.234 60.5678 102.234C59.9506 102.234 59.3842 102.145 58.8686 101.965C58.3607 101.785 57.9232 101.508 57.5561 101.133C57.1889 100.758 56.9037 100.27 56.7006 99.668C56.5053 99.0664 56.4076 98.3438 56.4076 97.5V89.3203H58.5756V97.5234C58.5756 98.0938 58.6381 98.5664 58.7631 98.9414C58.8959 99.3086 59.0717 99.6016 59.2904 99.8203C59.517 100.031 59.767 100.18 60.0404 100.266C60.3217 100.352 60.6107 100.395 60.9076 100.395C61.8295 100.395 62.56 100.219 63.099 99.8672C63.6381 99.5078 64.0248 99.0273 64.2592 98.4258C64.5014 97.8164 64.6225 97.1406 64.6225 96.3984ZM71.8647 91.3125V102H69.6967V89.3203H71.8061L71.8647 91.3125ZM75.8256 89.25L75.8139 91.2656C75.6342 91.2266 75.4623 91.2031 75.2982 91.1953C75.142 91.1797 74.9623 91.1719 74.7592 91.1719C74.2592 91.1719 73.8178 91.25 73.435 91.4062C73.0522 91.5625 72.7279 91.7812 72.4623 92.0625C72.1967 92.3438 71.9857 92.6797 71.8295 93.0703C71.6811 93.4531 71.5834 93.875 71.5365 94.3359L70.9272 94.6875C70.9272 93.9219 71.0014 93.2031 71.1498 92.5312C71.3061 91.8594 71.5443 91.2656 71.8647 90.75C72.185 90.2266 72.5912 89.8203 73.0834 89.5312C73.5834 89.2344 74.1772 89.0859 74.8647 89.0859C75.0209 89.0859 75.2006 89.1055 75.4037 89.1445C75.6068 89.1758 75.7475 89.2109 75.8256 89.25ZM89.0912 89.3203V90.9844H82.2357V89.3203H89.0912ZM84.5561 86.2383H86.724V98.8594C86.724 99.2891 86.7904 99.6133 86.9232 99.832C87.0561 100.051 87.2279 100.195 87.4389 100.266C87.6498 100.336 87.8764 100.371 88.1186 100.371C88.2982 100.371 88.4857 100.355 88.6811 100.324C88.8842 100.285 89.0365 100.254 89.1381 100.23L89.1498 102C88.9779 102.055 88.7514 102.105 88.4701 102.152C88.1967 102.207 87.8647 102.234 87.474 102.234C86.9428 102.234 86.4545 102.129 86.0092 101.918C85.5639 101.707 85.2084 101.355 84.9428 100.863C84.685 100.363 84.5561 99.6914 84.5561 98.8477V86.2383ZM93.9897 89.3203V102H91.81V89.3203H93.9897ZM91.6459 85.957C91.6459 85.6055 91.7514 85.3086 91.9623 85.0664C92.1811 84.8242 92.5014 84.7031 92.9232 84.7031C93.3373 84.7031 93.6537 84.8242 93.8725 85.0664C94.099 85.3086 94.2123 85.6055 94.2123 85.957C94.2123 86.293 94.099 86.582 93.8725 86.8242C93.6537 87.0586 93.3373 87.1758 92.9232 87.1758C92.5014 87.1758 92.1811 87.0586 91.9623 86.8242C91.7514 86.582 91.6459 86.293 91.6459 85.957ZM102.544 100.453C103.06 100.453 103.537 100.348 103.974 100.137C104.412 99.9258 104.771 99.6367 105.052 99.2695C105.333 98.8945 105.494 98.4688 105.533 97.9922H107.595C107.556 98.7422 107.302 99.4414 106.833 100.09C106.372 100.73 105.767 101.25 105.017 101.648C104.267 102.039 103.443 102.234 102.544 102.234C101.591 102.234 100.759 102.066 100.048 101.73C99.3451 101.395 98.7592 100.934 98.2904 100.348C97.8295 99.7617 97.4818 99.0898 97.2475 98.332C97.0209 97.5664 96.9076 96.7578 96.9076 95.9062V95.4141C96.9076 94.5625 97.0209 93.7578 97.2475 93C97.4818 92.2344 97.8295 91.5586 98.2904 90.9727C98.7592 90.3867 99.3451 89.9258 100.048 89.5898C100.759 89.2539 101.591 89.0859 102.544 89.0859C103.537 89.0859 104.404 89.2891 105.146 89.6953C105.888 90.0938 106.47 90.6406 106.892 91.3359C107.322 92.0234 107.556 92.8047 107.595 93.6797H105.533C105.494 93.1562 105.345 92.6836 105.087 92.2617C104.837 91.8398 104.494 91.5039 104.056 91.2539C103.626 90.9961 103.122 90.8672 102.544 90.8672C101.88 90.8672 101.322 91 100.869 91.2656C100.423 91.5234 100.068 91.875 99.8022 92.3203C99.5443 92.7578 99.3568 93.2461 99.2397 93.7852C99.1303 94.3164 99.0756 94.8594 99.0756 95.4141V95.9062C99.0756 96.4609 99.1303 97.0078 99.2397 97.5469C99.349 98.0859 99.5326 98.5742 99.7904 99.0117C100.056 99.4492 100.412 99.8008 100.857 100.066C101.31 100.324 101.872 100.453 102.544 100.453ZM112.212 84V102H110.033V84H112.212ZM119.958 89.3203L114.427 95.2383L111.333 98.4492L111.158 96.1406L113.372 93.4922L117.31 89.3203H119.958ZM117.978 102L113.454 95.9531L114.579 94.0195L120.533 102H117.978ZM127.224 102.234C126.341 102.234 125.54 102.086 124.822 101.789C124.111 101.484 123.497 101.059 122.982 100.512C122.474 99.9648 122.083 99.3164 121.81 98.5664C121.537 97.8164 121.4 96.9961 121.4 96.1055V95.6133C121.4 94.582 121.552 93.6641 121.857 92.8594C122.162 92.0469 122.576 91.3594 123.099 90.7969C123.622 90.2344 124.216 89.8086 124.88 89.5195C125.544 89.2305 126.232 89.0859 126.943 89.0859C127.849 89.0859 128.63 89.2422 129.287 89.5547C129.951 89.8672 130.494 90.3047 130.915 90.8672C131.337 91.4219 131.65 92.0781 131.853 92.8359C132.056 93.5859 132.158 94.4062 132.158 95.2969V96.2695H122.689V94.5H129.99V94.3359C129.958 93.7734 129.841 93.2266 129.638 92.6953C129.443 92.1641 129.13 91.7266 128.701 91.3828C128.271 91.0391 127.685 90.8672 126.943 90.8672C126.451 90.8672 125.997 90.9727 125.583 91.1836C125.169 91.3867 124.814 91.6914 124.517 92.0977C124.22 92.5039 123.99 93 123.826 93.5859C123.662 94.1719 123.579 94.8477 123.579 95.6133V96.1055C123.579 96.707 123.662 97.2734 123.826 97.8047C123.997 98.3281 124.244 98.7891 124.564 99.1875C124.892 99.5859 125.287 99.8984 125.747 100.125C126.216 100.352 126.747 100.465 127.341 100.465C128.107 100.465 128.755 100.309 129.287 99.9961C129.818 99.6836 130.283 99.2656 130.681 98.7422L131.994 99.7852C131.72 100.199 131.372 100.594 130.951 100.969C130.529 101.344 130.009 101.648 129.392 101.883C128.783 102.117 128.06 102.234 127.224 102.234ZM139.997 89.3203V90.9844H133.142V89.3203H139.997ZM135.462 86.2383H137.63V98.8594C137.63 99.2891 137.697 99.6133 137.829 99.832C137.962 100.051 138.134 100.195 138.345 100.266C138.556 100.336 138.783 100.371 139.025 100.371C139.204 100.371 139.392 100.355 139.587 100.324C139.79 100.285 139.943 100.254 140.044 100.23L140.056 102C139.884 102.055 139.658 102.105 139.376 102.152C139.103 102.207 138.771 102.234 138.38 102.234C137.849 102.234 137.361 102.129 136.915 101.918C136.47 101.707 136.115 101.355 135.849 100.863C135.591 100.363 135.462 99.6914 135.462 98.8477V86.2383ZM144.509 99.4219V101.168C144.509 101.879 144.329 102.629 143.97 103.418C143.611 104.215 143.107 104.879 142.458 105.41L141.228 104.555C141.478 104.211 141.689 103.859 141.861 103.5C142.033 103.148 142.162 102.781 142.247 102.398C142.341 102.023 142.388 101.625 142.388 101.203V99.4219H144.509ZM155.396 91.7578V106.875H153.216V89.3203H155.208L155.396 91.7578ZM163.939 95.5547V95.8008C163.939 96.7227 163.829 97.5781 163.611 98.3672C163.392 99.1484 163.072 99.8281 162.65 100.406C162.236 100.984 161.724 101.434 161.115 101.754C160.505 102.074 159.806 102.234 159.017 102.234C158.212 102.234 157.501 102.102 156.884 101.836C156.267 101.57 155.744 101.184 155.314 100.676C154.884 100.168 154.54 99.5586 154.283 98.8477C154.033 98.1367 153.861 97.3359 153.767 96.4453V95.1328C153.861 94.1953 154.037 93.3555 154.294 92.6133C154.552 91.8711 154.892 91.2383 155.314 90.7148C155.744 90.1836 156.263 89.7812 156.872 89.5078C157.482 89.2266 158.185 89.0859 158.982 89.0859C159.779 89.0859 160.486 89.2422 161.103 89.5547C161.72 89.8594 162.24 90.2969 162.662 90.8672C163.083 91.4375 163.4 92.1211 163.611 92.918C163.829 93.707 163.939 94.5859 163.939 95.5547ZM161.759 95.8008V95.5547C161.759 94.9219 161.693 94.3281 161.56 93.7734C161.427 93.2109 161.22 92.7188 160.939 92.2969C160.665 91.8672 160.314 91.5312 159.884 91.2891C159.454 91.0391 158.943 90.9141 158.349 90.9141C157.802 90.9141 157.326 91.0078 156.919 91.1953C156.521 91.3828 156.181 91.6367 155.9 91.957C155.619 92.2695 155.388 92.6289 155.208 93.0352C155.037 93.4336 154.908 93.8477 154.822 94.2773V97.3125C154.978 97.8594 155.197 98.375 155.478 98.8594C155.759 99.3359 156.134 99.7227 156.603 100.02C157.072 100.309 157.662 100.453 158.372 100.453C158.958 100.453 159.462 100.332 159.884 100.09C160.314 99.8398 160.665 99.5 160.939 99.0703C161.22 98.6406 161.427 98.1484 161.56 97.5938C161.693 97.0312 161.759 96.4336 161.759 95.8008ZM169.06 84V102H166.88V84H169.06ZM177.802 102.234C176.919 102.234 176.119 102.086 175.4 101.789C174.689 101.484 174.076 101.059 173.56 100.512C173.052 99.9648 172.662 99.3164 172.388 98.5664C172.115 97.8164 171.978 96.9961 171.978 96.1055V95.6133C171.978 94.582 172.13 93.6641 172.435 92.8594C172.74 92.0469 173.154 91.3594 173.677 90.7969C174.201 90.2344 174.794 89.8086 175.458 89.5195C176.122 89.2305 176.81 89.0859 177.521 89.0859C178.427 89.0859 179.208 89.2422 179.865 89.5547C180.529 89.8672 181.072 90.3047 181.494 90.8672C181.915 91.4219 182.228 92.0781 182.431 92.8359C182.634 93.5859 182.736 94.4062 182.736 95.2969V96.2695H173.267V94.5H180.568V94.3359C180.537 93.7734 180.419 93.2266 180.216 92.6953C180.021 92.1641 179.708 91.7266 179.279 91.3828C178.849 91.0391 178.263 90.8672 177.521 90.8672C177.029 90.8672 176.576 90.9727 176.162 91.1836C175.747 91.3867 175.392 91.6914 175.095 92.0977C174.798 92.5039 174.568 93 174.404 93.5859C174.24 94.1719 174.158 94.8477 174.158 95.6133V96.1055C174.158 96.707 174.24 97.2734 174.404 97.8047C174.576 98.3281 174.822 98.7891 175.142 99.1875C175.47 99.5859 175.865 99.8984 176.326 100.125C176.794 100.352 177.326 100.465 177.919 100.465C178.685 100.465 179.333 100.309 179.865 99.9961C180.396 99.6836 180.861 99.2656 181.259 98.7422L182.572 99.7852C182.298 100.199 181.951 100.594 181.529 100.969C181.107 101.344 180.587 101.648 179.97 101.883C179.361 102.117 178.638 102.234 177.802 102.234ZM192.744 99.832V93.3047C192.744 92.8047 192.642 92.3711 192.439 92.0039C192.244 91.6289 191.947 91.3398 191.548 91.1367C191.15 90.9336 190.658 90.832 190.072 90.832C189.525 90.832 189.044 90.9258 188.63 91.1133C188.224 91.3008 187.904 91.5469 187.669 91.8516C187.443 92.1562 187.329 92.4844 187.329 92.8359H185.162C185.162 92.3828 185.279 91.9336 185.513 91.4883C185.747 91.043 186.083 90.6406 186.521 90.2812C186.966 89.9141 187.497 89.625 188.115 89.4141C188.74 89.1953 189.435 89.0859 190.201 89.0859C191.122 89.0859 191.935 89.2422 192.638 89.5547C193.349 89.8672 193.904 90.3398 194.302 90.9727C194.708 91.5977 194.912 92.3828 194.912 93.3281V99.2344C194.912 99.6562 194.947 100.105 195.017 100.582C195.095 101.059 195.208 101.469 195.357 101.812V102H193.095C192.986 101.75 192.9 101.418 192.837 101.004C192.775 100.582 192.744 100.191 192.744 99.832ZM193.119 94.3125L193.142 95.8359H190.951C190.333 95.8359 189.783 95.8867 189.298 95.9883C188.814 96.082 188.408 96.2266 188.079 96.4219C187.751 96.6172 187.501 96.8633 187.329 97.1602C187.158 97.4492 187.072 97.7891 187.072 98.1797C187.072 98.5781 187.162 98.9414 187.341 99.2695C187.521 99.5977 187.79 99.8594 188.15 100.055C188.517 100.242 188.966 100.336 189.497 100.336C190.162 100.336 190.747 100.195 191.255 99.9141C191.763 99.6328 192.165 99.2891 192.462 98.8828C192.767 98.4766 192.931 98.082 192.954 97.6992L193.88 98.7422C193.826 99.0703 193.677 99.4336 193.435 99.832C193.193 100.23 192.869 100.613 192.462 100.98C192.064 101.34 191.587 101.641 191.033 101.883C190.486 102.117 189.869 102.234 189.181 102.234C188.322 102.234 187.568 102.066 186.919 101.73C186.279 101.395 185.779 100.945 185.419 100.383C185.068 99.8125 184.892 99.1758 184.892 98.4727C184.892 97.793 185.025 97.1953 185.29 96.6797C185.556 96.1562 185.939 95.7227 186.439 95.3789C186.939 95.0273 187.54 94.7617 188.244 94.582C188.947 94.4023 189.732 94.3125 190.599 94.3125H193.119ZM205.704 98.6367C205.704 98.3242 205.634 98.0352 205.494 97.7695C205.361 97.4961 205.083 97.25 204.662 97.0312C204.247 96.8047 203.622 96.6094 202.787 96.4453C202.083 96.2969 201.447 96.1211 200.876 95.918C200.314 95.7148 199.833 95.4688 199.435 95.1797C199.044 94.8906 198.744 94.5508 198.533 94.1602C198.322 93.7695 198.216 93.3125 198.216 92.7891C198.216 92.2891 198.326 91.8164 198.544 91.3711C198.771 90.9258 199.087 90.5312 199.494 90.1875C199.908 89.8438 200.404 89.5742 200.982 89.3789C201.56 89.1836 202.204 89.0859 202.915 89.0859C203.931 89.0859 204.798 89.2656 205.517 89.625C206.236 89.9844 206.787 90.4648 207.169 91.0664C207.552 91.6602 207.744 92.3203 207.744 93.0469H205.576C205.576 92.6953 205.47 92.3555 205.259 92.0273C205.056 91.6914 204.755 91.4141 204.357 91.1953C203.966 90.9766 203.486 90.8672 202.915 90.8672C202.314 90.8672 201.826 90.9609 201.451 91.1484C201.083 91.3281 200.814 91.5586 200.642 91.8398C200.478 92.1211 200.396 92.418 200.396 92.7305C200.396 92.9648 200.435 93.1758 200.513 93.3633C200.599 93.543 200.747 93.7109 200.958 93.8672C201.169 94.0156 201.466 94.1562 201.849 94.2891C202.232 94.4219 202.72 94.5547 203.314 94.6875C204.353 94.9219 205.208 95.2031 205.88 95.5312C206.552 95.8594 207.052 96.2617 207.38 96.7383C207.708 97.2148 207.872 97.793 207.872 98.4727C207.872 99.0273 207.755 99.5352 207.521 99.9961C207.294 100.457 206.962 100.855 206.525 101.191C206.095 101.52 205.579 101.777 204.978 101.965C204.384 102.145 203.716 102.234 202.974 102.234C201.857 102.234 200.912 102.035 200.138 101.637C199.365 101.238 198.779 100.723 198.38 100.09C197.982 99.457 197.783 98.7891 197.783 98.0859H199.962C199.994 98.6797 200.165 99.1523 200.478 99.5039C200.79 99.8477 201.173 100.094 201.626 100.242C202.079 100.383 202.529 100.453 202.974 100.453C203.568 100.453 204.064 100.375 204.462 100.219C204.869 100.062 205.177 99.8477 205.388 99.5742C205.599 99.3008 205.704 98.9883 205.704 98.6367ZM215.982 102.234C215.099 102.234 214.298 102.086 213.579 101.789C212.869 101.484 212.255 101.059 211.74 100.512C211.232 99.9648 210.841 99.3164 210.568 98.5664C210.294 97.8164 210.158 96.9961 210.158 96.1055V95.6133C210.158 94.582 210.31 93.6641 210.615 92.8594C210.919 92.0469 211.333 91.3594 211.857 90.7969C212.38 90.2344 212.974 89.8086 213.638 89.5195C214.302 89.2305 214.99 89.0859 215.701 89.0859C216.607 89.0859 217.388 89.2422 218.044 89.5547C218.708 89.8672 219.251 90.3047 219.673 90.8672C220.095 91.4219 220.408 92.0781 220.611 92.8359C220.814 93.5859 220.915 94.4062 220.915 95.2969V96.2695H211.447V94.5H218.747V94.3359C218.716 93.7734 218.599 93.2266 218.396 92.6953C218.201 92.1641 217.888 91.7266 217.458 91.3828C217.029 91.0391 216.443 90.8672 215.701 90.8672C215.208 90.8672 214.755 90.9727 214.341 91.1836C213.927 91.3867 213.572 91.6914 213.275 92.0977C212.978 92.5039 212.747 93 212.583 93.5859C212.419 94.1719 212.337 94.8477 212.337 95.6133V96.1055C212.337 96.707 212.419 97.2734 212.583 97.8047C212.755 98.3281 213.001 98.7891 213.322 99.1875C213.65 99.5859 214.044 99.8984 214.505 100.125C214.974 100.352 215.505 100.465 216.099 100.465C216.865 100.465 217.513 100.309 218.044 99.9961C218.576 99.6836 219.04 99.2656 219.439 98.7422L220.751 99.7852C220.478 100.199 220.13 100.594 219.708 100.969C219.287 101.344 218.767 101.648 218.15 101.883C217.54 102.117 216.818 102.234 215.982 102.234ZM228.158 97.1953H225.978C225.986 96.4453 226.052 95.832 226.177 95.3555C226.31 94.8711 226.525 94.4297 226.822 94.0312C227.119 93.6328 227.513 93.1797 228.005 92.6719C228.365 92.3047 228.693 91.9609 228.99 91.6406C229.294 91.3125 229.54 90.9609 229.728 90.5859C229.915 90.2031 230.009 89.7461 230.009 89.2148C230.009 88.6758 229.912 88.2109 229.716 87.8203C229.529 87.4297 229.247 87.1289 228.872 86.918C228.505 86.707 228.048 86.6016 227.501 86.6016C227.048 86.6016 226.619 86.6836 226.212 86.8477C225.806 87.0117 225.478 87.2656 225.228 87.6094C224.978 87.9453 224.849 88.3867 224.841 88.9336H222.673C222.689 88.0508 222.908 87.293 223.329 86.6602C223.759 86.0273 224.337 85.543 225.064 85.207C225.79 84.8711 226.603 84.7031 227.501 84.7031C228.494 84.7031 229.337 84.8828 230.033 85.2422C230.736 85.6016 231.271 86.1172 231.638 86.7891C232.005 87.4531 232.189 88.2422 232.189 89.1562C232.189 89.8594 232.044 90.5078 231.755 91.1016C231.474 91.6875 231.111 92.2383 230.665 92.7539C230.22 93.2695 229.747 93.7617 229.247 94.2305C228.818 94.6289 228.529 95.0781 228.38 95.5781C228.232 96.0781 228.158 96.6172 228.158 97.1953ZM225.884 100.91C225.884 100.559 225.994 100.262 226.212 100.02C226.431 99.7773 226.747 99.6562 227.162 99.6562C227.583 99.6562 227.904 99.7773 228.122 100.02C228.341 100.262 228.451 100.559 228.451 100.91C228.451 101.246 228.341 101.535 228.122 101.777C227.904 102.02 227.583 102.141 227.162 102.141C226.747 102.141 226.431 102.02 226.212 101.777C225.994 101.535 225.884 101.246 225.884 100.91Z" fill="black"/>
<path d="M33.125 22.625V34H31.6172V22.625H33.125ZM37.8906 27.7422V28.9766H32.7969V27.7422H37.8906ZM38.6641 22.625V23.8594H32.7969V22.625H38.6641ZM47.3594 32.7734V34H41.6719V32.7734H47.3594ZM41.9688 22.625V34H40.4609V22.625H41.9688ZM50.7031 22.625V34H49.1953V22.625H50.7031ZM61.8516 28.3359V32.5C61.7109 32.7083 61.487 32.9427 61.1797 33.2031C60.8724 33.4583 60.4479 33.6823 59.9062 33.875C59.3698 34.0625 58.6771 34.1562 57.8281 34.1562C57.1354 34.1562 56.4974 34.0365 55.9141 33.7969C55.3359 33.5521 54.8333 33.1979 54.4062 32.7344C53.9844 32.2656 53.6562 31.6979 53.4219 31.0312C53.1927 30.3594 53.0781 29.599 53.0781 28.75V27.8672C53.0781 27.0182 53.1771 26.2604 53.375 25.5938C53.5781 24.9271 53.875 24.362 54.2656 23.8984C54.6562 23.4297 55.1354 23.0755 55.7031 22.8359C56.2708 22.5911 56.9219 22.4688 57.6562 22.4688C58.526 22.4688 59.2526 22.6198 59.8359 22.9219C60.4245 23.2188 60.8828 23.6302 61.2109 24.1562C61.5443 24.6823 61.7578 25.2812 61.8516 25.9531H60.3438C60.276 25.5417 60.1406 25.1667 59.9375 24.8281C59.7396 24.4896 59.4557 24.2188 59.0859 24.0156C58.7161 23.8073 58.2396 23.7031 57.6562 23.7031C57.1302 23.7031 56.6745 23.7995 56.2891 23.9922C55.9036 24.1849 55.5859 24.4609 55.3359 24.8203C55.0859 25.1797 54.8984 25.6146 54.7734 26.125C54.6536 26.6354 54.5938 27.2109 54.5938 27.8516V28.75C54.5938 29.4062 54.6693 29.9922 54.8203 30.5078C54.9766 31.0234 55.1979 31.4635 55.4844 31.8281C55.7708 32.1875 56.112 32.4609 56.5078 32.6484C56.9089 32.8359 57.3516 32.9297 57.8359 32.9297C58.3724 32.9297 58.8073 32.8854 59.1406 32.7969C59.474 32.7031 59.7344 32.5938 59.9219 32.4688C60.1094 32.3385 60.2526 32.2161 60.3516 32.1016V29.5547H57.7188V28.3359H61.8516ZM71.7812 27.5156V28.7422H65.625V27.5156H71.7812ZM65.8594 22.625V34H64.3516V22.625H65.8594ZM73.0938 22.625V34H71.5938V22.625H73.0938ZM79.7422 22.625V34H78.2578V22.625H79.7422ZM83.3984 22.625V23.8594H74.6094V22.625H83.3984ZM92.9531 23.6328L89.1875 34H87.6484L91.9844 22.625H92.9766L92.9531 23.6328ZM96.1094 34L92.3359 23.6328L92.3125 22.625H93.3047L97.6562 34H96.1094ZM95.9141 29.7891V31.0234H89.5234V29.7891H95.9141ZM102.367 22.625V34H100.883V22.625H102.367ZM106.023 22.625V23.8594H97.2344V22.625H106.023ZM112.039 22.625V34H110.555V22.625H112.039ZM115.695 22.625V23.8594H106.906V22.625H115.695ZM124.609 32.7734V34H118.586V32.7734H124.609ZM118.891 22.625V34H117.383V22.625H118.891ZM123.812 27.5156V28.7422H118.586V27.5156H123.812ZM124.531 22.625V23.8594H118.586V22.625H124.531ZM135.227 22.625V34H133.711L127.984 25.2266V34H126.477V22.625H127.984L133.734 31.4219V22.625H135.227ZM140.977 34H138.602L138.617 32.7734H140.977C141.789 32.7734 142.466 32.6042 143.008 32.2656C143.549 31.9219 143.956 31.4427 144.227 30.8281C144.503 30.2083 144.641 29.4844 144.641 28.6562V27.9609C144.641 27.3099 144.562 26.7318 144.406 26.2266C144.25 25.7161 144.021 25.2865 143.719 24.9375C143.417 24.5833 143.047 24.3151 142.609 24.1328C142.177 23.9505 141.68 23.8594 141.117 23.8594H138.555V22.625H141.117C141.862 22.625 142.542 22.75 143.156 23C143.771 23.2448 144.299 23.6016 144.742 24.0703C145.19 24.5339 145.534 25.0964 145.773 25.7578C146.013 26.4141 146.133 27.1536 146.133 27.9766V28.6562C146.133 29.4792 146.013 30.2214 145.773 30.8828C145.534 31.5391 145.188 32.099 144.734 32.5625C144.286 33.026 143.745 33.3828 143.109 33.6328C142.479 33.8776 141.768 34 140.977 34ZM139.406 22.625V34H137.898V22.625H139.406ZM152.438 23.6328L148.672 34H147.133L151.469 22.625H152.461L152.438 23.6328ZM155.594 34L151.82 23.6328L151.797 22.625H152.789L157.141 34H155.594ZM155.398 29.7891V31.0234H149.008V29.7891H155.398ZM167.414 22.625V34H165.898L160.172 25.2266V34H158.664V22.625H160.172L165.922 31.4219V22.625H167.414ZM174.055 22.625V34H172.57V22.625H174.055ZM177.711 22.625V23.8594H168.922V22.625H177.711ZM187.109 28.6797H184.227L184.211 27.4688H186.828C187.26 27.4688 187.638 27.3958 187.961 27.25C188.284 27.1042 188.534 26.8958 188.711 26.625C188.893 26.349 188.984 26.0208 188.984 25.6406C188.984 25.224 188.904 24.8854 188.742 24.625C188.586 24.3594 188.344 24.1667 188.016 24.0469C187.693 23.9219 187.281 23.8594 186.781 23.8594H184.562V34H183.055V22.625H186.781C187.365 22.625 187.885 22.6849 188.344 22.8047C188.802 22.9193 189.19 23.1016 189.508 23.3516C189.831 23.5964 190.076 23.9089 190.242 24.2891C190.409 24.6693 190.492 25.125 190.492 25.6562C190.492 26.125 190.372 26.5495 190.133 26.9297C189.893 27.3047 189.56 27.612 189.133 27.8516C188.711 28.0911 188.216 28.2448 187.648 28.3125L187.109 28.6797ZM187.039 34H183.633L184.484 32.7734H187.039C187.518 32.7734 187.924 32.6901 188.258 32.5234C188.596 32.3568 188.854 32.1224 189.031 31.8203C189.208 31.513 189.297 31.151 189.297 30.7344C189.297 30.3125 189.221 29.9479 189.07 29.6406C188.919 29.3333 188.682 29.0964 188.359 28.9297C188.036 28.763 187.62 28.6797 187.109 28.6797H184.961L184.977 27.4688H187.914L188.234 27.9062C188.781 27.9531 189.245 28.1094 189.625 28.375C190.005 28.6354 190.294 28.9688 190.492 29.375C190.695 29.7812 190.797 30.2292 190.797 30.7188C190.797 31.4271 190.641 32.026 190.328 32.5156C190.021 33 189.586 33.3698 189.023 33.625C188.461 33.875 187.799 34 187.039 34ZM197.234 23.6328L193.469 34H191.93L196.266 22.625H197.258L197.234 23.6328ZM200.391 34L196.617 23.6328L196.594 22.625H197.586L201.938 34H200.391ZM200.195 29.7891V31.0234H193.805V29.7891H200.195ZM203.461 22.625H207.227C208.081 22.625 208.802 22.7552 209.391 23.0156C209.984 23.276 210.435 23.6615 210.742 24.1719C211.055 24.6771 211.211 25.2995 211.211 26.0391C211.211 26.5599 211.104 27.0365 210.891 27.4688C210.682 27.8958 210.38 28.2604 209.984 28.5625C209.594 28.8594 209.125 29.0807 208.578 29.2266L208.156 29.3906H204.617L204.602 28.1641H207.273C207.815 28.1641 208.266 28.0703 208.625 27.8828C208.984 27.6901 209.255 27.4323 209.438 27.1094C209.62 26.7865 209.711 26.4297 209.711 26.0391C209.711 25.6016 209.625 25.2188 209.453 24.8906C209.281 24.5625 209.01 24.3099 208.641 24.1328C208.276 23.9505 207.805 23.8594 207.227 23.8594H204.969V34H203.461V22.625ZM210.109 34L207.344 28.8438L208.914 28.8359L211.719 33.9062V34H210.109ZM217.375 28.6797H214.492L214.477 27.4688H217.094C217.526 27.4688 217.904 27.3958 218.227 27.25C218.549 27.1042 218.799 26.8958 218.977 26.625C219.159 26.349 219.25 26.0208 219.25 25.6406C219.25 25.224 219.169 24.8854 219.008 24.625C218.852 24.3594 218.609 24.1667 218.281 24.0469C217.958 23.9219 217.547 23.8594 217.047 23.8594H214.828V34H213.32V22.625H217.047C217.63 22.625 218.151 22.6849 218.609 22.8047C219.068 22.9193 219.456 23.1016 219.773 23.3516C220.096 23.5964 220.341 23.9089 220.508 24.2891C220.674 24.6693 220.758 25.125 220.758 25.6562C220.758 26.125 220.638 26.5495 220.398 26.9297C220.159 27.3047 219.826 27.612 219.398 27.8516C218.977 28.0911 218.482 28.2448 217.914 28.3125L217.375 28.6797ZM217.305 34H213.898L214.75 32.7734H217.305C217.784 32.7734 218.19 32.6901 218.523 32.5234C218.862 32.3568 219.12 32.1224 219.297 31.8203C219.474 31.513 219.562 31.151 219.562 30.7344C219.562 30.3125 219.487 29.9479 219.336 29.6406C219.185 29.3333 218.948 29.0964 218.625 28.9297C218.302 28.763 217.885 28.6797 217.375 28.6797H215.227L215.242 27.4688H218.18L218.5 27.9062C219.047 27.9531 219.51 28.1094 219.891 28.375C220.271 28.6354 220.56 28.9688 220.758 29.375C220.961 29.7812 221.062 30.2292 221.062 30.7188C221.062 31.4271 220.906 32.026 220.594 32.5156C220.286 33 219.852 33.3698 219.289 33.625C218.727 33.875 218.065 34 217.305 34ZM227.5 23.6328L223.734 34H222.195L226.531 22.625H227.523L227.5 23.6328ZM230.656 34L226.883 23.6328L226.859 22.625H227.852L232.203 34H230.656ZM230.461 29.7891V31.0234H224.07V29.7891H230.461ZM233.727 22.625H237.492C238.346 22.625 239.068 22.7552 239.656 23.0156C240.25 23.276 240.701 23.6615 241.008 24.1719C241.32 24.6771 241.477 25.2995 241.477 26.0391C241.477 26.5599 241.37 27.0365 241.156 27.4688C240.948 27.8958 240.646 28.2604 240.25 28.5625C239.859 28.8594 239.391 29.0807 238.844 29.2266L238.422 29.3906H234.883L234.867 28.1641H237.539C238.081 28.1641 238.531 28.0703 238.891 27.8828C239.25 27.6901 239.521 27.4323 239.703 27.1094C239.885 26.7865 239.977 26.4297 239.977 26.0391C239.977 25.6016 239.891 25.2188 239.719 24.8906C239.547 24.5625 239.276 24.3099 238.906 24.1328C238.542 23.9505 238.07 23.8594 237.492 23.8594H235.234V34H233.727V22.625ZM240.375 34L237.609 28.8438L239.18 28.8359L241.984 33.9062V34H240.375ZM247.797 23.6328L244.031 34H242.492L246.828 22.625H247.82L247.797 23.6328ZM250.953 34L247.18 23.6328L247.156 22.625H248.148L252.5 34H250.953ZM250.758 29.7891V31.0234H244.367V29.7891H250.758Z" fill="black"/>
</svg>
