<svg width="24" height="24" viewBox="0 0 24 24" fill="none" xmlns="http://www.w3.org/2000/svg">
<path d="M11.1597 5.87908L11.1598 5.87924C11.1965 5.93595 11.2863 6.06412 11.4497 6.1718C11.6438 6.29974 11.9212 6.38175 12.2262 6.31098C12.4874 6.25035 12.649 6.10388 12.7164 6.03472C12.7663 5.98349 12.8028 5.93481 12.8266 5.90004C13.6435 4.7483 14.9844 4 16.5 4C18.9853 4 21 6.01472 21 8.5C21 9.13941 20.759 9.77211 20.3661 10.4254C20.0765 10.9068 19.7541 11.3264 19.4259 11.7535C19.2915 11.9284 19.1562 12.1045 19.0217 12.2867C18.7771 12.6181 17.7584 13.7054 16.4614 15.0466C15.1966 16.3546 13.7434 17.827 12.6996 18.8793C12.3129 19.2692 11.6871 19.2692 11.3004 18.8793C10.2567 17.827 8.80345 16.3546 7.53861 15.0466C6.24161 13.7054 5.22295 12.6181 4.97829 12.2867C4.84384 12.1045 4.70849 11.9284 4.5741 11.7535C4.24592 11.3264 3.92348 10.9068 3.63393 10.4254C3.241 9.77211 3 9.13941 3 8.5C3 6.01472 5.01472 4 7.5 4C9.89711 4 11.1355 5.843 11.1595 5.87879C11.1599 5.87938 11.16 5.87948 11.1597 5.87908ZM12.8913 5.79076C12.8872 5.79884 12.8777 5.81716 12.8637 5.84101C12.8749 5.82172 12.885 5.80291 12.8913 5.79076ZM11.1076 4.88613C11.1 4.90124 11.1021 4.89648 11.1095 4.88224C11.1083 4.8846 11.1077 4.88595 11.1076 4.88613Z" stroke="black" stroke-width="2"/>
</svg>
