<svg width="24" height="24" viewBox="0 0 24 24" fill="none" xmlns="http://www.w3.org/2000/svg">
<path fill-rule="evenodd" clip-rule="evenodd" d="M12 15C9.60714 15 7.54144 15.5836 6.57815 16.4279C5.59174 15.2215 5 13.6799 5 12C5 8.13401 8.13401 5 12 5C15.866 5 19 8.13401 19 12C19 13.6799 18.4083 15.2215 17.4219 16.4279C16.4586 15.5836 14.3929 15 12 15ZM12 21C16.9706 21 21 16.9706 21 12C21 7.02944 16.9706 3 12 3C7.02944 3 3 7.02944 3 12C3 16.9706 7.02944 21 12 21ZM12 14C13.6569 14 15 12.6569 15 11C15 9.34315 13.6569 8 12 8C10.3431 8 9 9.34315 9 11C9 12.6569 10.3431 14 12 14Z" fill="black"/>
</svg>
