<svg width="24" height="24" viewBox="0 0 24 24" fill="none" xmlns="http://www.w3.org/2000/svg">
<path d="M21.2947 2.70467C21.6842 3.09421 21.6842 3.72579 21.2947 4.11533L16.71 8.7L18.2991 10.294C18.9276 10.9244 18.4811 12 17.591 12H12V6.41421C12 5.52331 13.0771 5.07714 13.7071 5.70711L15.29 7.29L19.8847 2.704C20.2743 2.31508 20.9054 2.31538 21.2947 2.70467ZM2.70467 21.2947C3.09421 21.6842 3.72579 21.6842 4.11533 21.2947L8.7 16.71L10.294 18.2991C10.9244 18.9276 12 18.4811 12 17.591V12H6.41421C5.52331 12 5.07714 13.0771 5.70711 13.7071L7.29 15.29L2.704 19.8847C2.31508 20.2743 2.31538 20.9054 2.70467 21.2947Z" fill="black"/>
</svg>
