<svg width="24" height="24" viewBox="0 0 24 24" fill="none" xmlns="http://www.w3.org/2000/svg">
<circle cx="12" cy="12" r="8" stroke="black" stroke-width="2"/>
<path fill-rule="evenodd" clip-rule="evenodd" d="M8.1858 15.814C8.43362 16.0618 8.83542 16.0618 9.08324 15.814L12 12.8972L14.9168 15.814C15.1646 16.0618 15.5664 16.0618 15.8143 15.814C16.0621 15.5662 16.0621 15.1644 15.8143 14.9166L12.8974 11.9998L15.814 9.08318C16.0619 8.83536 16.0619 8.43356 15.814 8.18574C15.5662 7.93792 15.1644 7.93792 14.9166 8.18574L12 11.1023L9.08346 8.1858C8.83564 7.93798 8.43385 7.93798 8.18602 8.1858C7.9382 8.43362 7.9382 8.83542 8.18603 9.08324L11.1026 11.9998L8.1858 14.9165C7.93798 15.1644 7.93798 15.5662 8.1858 15.814Z" fill="black"/>
<path d="M9.08324 15.814L8.72969 15.4604L8.72969 15.4604L9.08324 15.814ZM8.1858 15.814L8.53936 15.4604L8.53936 15.4604L8.1858 15.814ZM12 12.8972L12.3536 12.5437L12 12.1901L11.6464 12.5437L12 12.8972ZM14.9168 15.814L15.2704 15.4605L14.9168 15.814ZM15.8143 15.814L16.1678 16.1676L15.8143 15.814ZM15.8143 14.9166L15.4607 15.2701L15.8143 14.9166ZM12.8974 11.9998L12.5439 11.6462L12.1903 11.9998L12.5439 12.3533L12.8974 11.9998ZM15.814 8.18574L15.4605 8.5393L15.814 8.18574ZM14.9166 8.18574L15.2701 8.5393L14.9166 8.18574ZM12 11.1023L11.6464 11.4559L12 11.8094L12.3536 11.4559L12 11.1023ZM9.08346 8.1858L9.43702 7.83224V7.83224L9.08346 8.1858ZM8.18603 9.08324L7.83247 9.43679H7.83247L8.18603 9.08324ZM11.1026 11.9998L11.4561 12.3533L11.8097 11.9998L11.4561 11.6462L11.1026 11.9998ZM8.1858 14.9165L7.83225 14.563H7.83225L8.1858 14.9165ZM8.72969 15.4604C8.67713 15.513 8.59191 15.513 8.53936 15.4604L7.83225 16.1675C8.27533 16.6106 8.99371 16.6106 9.4368 16.1675L8.72969 15.4604ZM11.6464 12.5437L8.72969 15.4604L9.4368 16.1675L12.3536 13.2508L11.6464 12.5437ZM15.2704 15.4605L12.3536 12.5437L11.6464 13.2508L14.5633 16.1676L15.2704 15.4605ZM15.4607 15.4605C15.4081 15.513 15.3229 15.513 15.2704 15.4605L14.5633 16.1676C15.0063 16.6107 15.7247 16.6107 16.1678 16.1676L15.4607 15.4605ZM15.4607 15.2701C15.5133 15.3227 15.5133 15.4079 15.4607 15.4605L16.1678 16.1676C16.6109 15.7245 16.6109 15.0061 16.1678 14.563L15.4607 15.2701ZM12.5439 12.3533L15.4607 15.2701L16.1678 14.563L13.251 11.6462L12.5439 12.3533ZM15.4605 8.72963L12.5439 11.6462L13.251 12.3533L16.1676 9.43674L15.4605 8.72963ZM15.4605 8.5393C15.513 8.59186 15.513 8.67707 15.4605 8.72963L16.1676 9.43674C16.6107 8.99365 16.6107 8.27527 16.1676 7.83219L15.4605 8.5393ZM15.2701 8.5393C15.3227 8.48674 15.4079 8.48674 15.4605 8.5393L16.1676 7.83219C15.7245 7.38911 15.0061 7.38911 14.563 7.83219L15.2701 8.5393ZM12.3536 11.4559L15.2701 8.5393L14.563 7.83219L11.6464 10.7488L12.3536 11.4559ZM8.72991 8.53935L11.6464 11.4559L12.3536 10.7488L9.43702 7.83224L8.72991 8.53935ZM8.53958 8.53935C8.59214 8.48679 8.67735 8.48679 8.72991 8.53935L9.43702 7.83224C8.99393 7.38916 8.27555 7.38916 7.83247 7.83224L8.53958 8.53935ZM8.53958 8.72968C8.48702 8.67712 8.48702 8.59191 8.53958 8.53935L7.83247 7.83224C7.38939 8.27533 7.38939 8.99371 7.83247 9.43679L8.53958 8.72968ZM11.4561 11.6462L8.53958 8.72968L7.83247 9.43679L10.749 12.3533L11.4561 11.6462ZM8.53936 15.2701L11.4561 12.3533L10.749 11.6462L7.83225 14.563L8.53936 15.2701ZM8.53936 15.4604C8.4868 15.4079 8.4868 15.3226 8.53936 15.2701L7.83225 14.563C7.38917 15.0061 7.38917 15.7244 7.83225 16.1675L8.53936 15.4604Z" fill="black"/>
</svg>
