<svg width="24" height="24" viewBox="0 0 24 24" fill="none" xmlns="http://www.w3.org/2000/svg">
<path d="M9.18847 16.0414L8.89832 15.7631H8.49632H4C3.44771 15.7631 3 15.3154 3 14.7631V9.23686C3 8.68458 3.44771 8.23686 4 8.23686H8.49632H8.89832L9.18847 7.95862L14 3.34448L14 20.6555L9.18847 16.0414Z" stroke="black" stroke-width="2"/>
<path d="M19.5442 4.5C21.0811 6.55626 22 9.16343 22 12C22 14.8366 21.0811 17.4437 19.5442 19.5" stroke="black" stroke-width="2" stroke-linecap="round"/>
<path d="M17 9.94509C17 9.13135 17.8868 8.7265 18.3022 9.42621C18.7441 10.1705 19 11.0533 19 12C19 12.9467 18.7441 13.8295 18.3022 14.5738C17.8868 15.2735 17 14.8686 17 14.0549V9.94509Z" fill="black"/>
</svg>
