<svg width="24" height="24" viewBox="0 0 24 24" fill="none" xmlns="http://www.w3.org/2000/svg">
<path fill-rule="evenodd" clip-rule="evenodd" d="M7 10C7 7.23858 9.23858 5 12 5C14.7614 5 17 7.23858 17 10C17 11.065 16.6693 12.0467 16.1049 12.8558C15.6576 13.4972 13.5353 16.0558 12.0022 17.8881C10.512 16.1036 8.45085 13.6182 7.95967 12.9463C7.35585 12.1202 7 11.1046 7 10ZM5 10C5 6.13401 8.13401 3 12 3C15.866 3 19 6.13401 19 10C19 11.4872 18.5362 12.8662 17.7453 14C17.1489 14.855 14.1847 18.4013 12.7631 20.0936C12.3643 20.5682 11.6356 20.5666 11.2375 20.0913C9.84612 18.4303 6.97971 14.9948 6.34504 14.1265C5.49925 12.9694 5 11.543 5 10ZM12 12C13.1046 12 14 11.1046 14 10C14 8.89543 13.1046 8 12 8C10.8954 8 10 8.89543 10 10C10 11.1046 10.8954 12 12 12Z" fill="black"/>
</svg>
