<svg width="24" height="24" viewBox="0 0 24 24" fill="none" xmlns="http://www.w3.org/2000/svg">
<mask id="path-1-outside-1_11_5" maskUnits="userSpaceOnUse" x="1" y="1" width="22" height="22" fill="black">
<rect fill="white" x="1" y="1" width="22" height="22"/>
<path fill-rule="evenodd" clip-rule="evenodd" d="M11.3749 3H12.6251C13.1836 3 13.6364 3.45277 13.6364 4.0113C13.6364 4.4836 13.9662 4.88595 14.4124 5.04062C14.7257 5.14921 15.0294 5.27835 15.3219 5.42644C15.707 5.62146 16.1816 5.57224 16.4828 5.26298C16.8237 4.91304 17.3801 4.89487 17.743 5.22184L18.6353 6.02568C19.0306 6.38182 19.0451 6.99711 18.6669 7.3714C18.3515 7.68353 18.3079 8.17285 18.5151 8.56518C18.6879 8.89218 18.8367 9.23375 18.9594 9.58757C19.114 10.0338 19.5164 10.3636 19.9887 10.3636C20.5472 10.3636 21 10.8164 21 11.3749V12.6251C21 13.1836 20.5472 13.6364 19.9887 13.6364C19.5164 13.6364 19.114 13.9662 18.9594 14.4124C18.7542 15.0043 18.4757 15.5619 18.1347 16.0743C18.1312 16.0795 18.1319 16.0865 18.1364 16.0909L18.1889 16.1435C18.8197 16.7743 18.7727 17.8106 18.0874 18.3817L17.5188 18.8556C17.1831 19.1353 16.6837 19.0871 16.4077 18.7484C16.1557 18.4392 15.7137 18.3725 15.3588 18.5547C15.055 18.7107 14.7389 18.8462 14.4124 18.9594C13.9662 19.114 13.6364 19.5164 13.6364 19.9887C13.6364 20.5472 13.1836 21 12.6251 21H11.3749C10.8164 21 10.3636 20.5472 10.3636 19.9887C10.3636 19.5164 10.0338 19.114 9.58758 18.9594C9.29058 18.8564 9.00222 18.735 8.72386 18.5965C8.30246 18.3868 7.78991 18.4152 7.43232 18.7213C7.00875 19.0838 6.37752 19.0593 5.98329 18.6651L5.31365 17.9955C4.94016 17.622 4.94172 17.016 5.31714 16.6444C5.64177 16.3231 5.68653 15.8195 5.47441 15.415C5.3061 15.094 5.16078 14.7591 5.04063 14.4124C4.88596 13.9662 4.4836 13.6364 4.0113 13.6364C3.45277 13.6364 3 13.1836 3 12.6251V11.3749C3 10.8164 3.45277 10.3636 4.0113 10.3636C4.4836 10.3636 4.88596 10.0338 5.04063 9.58757C5.16326 9.23375 5.31211 8.89218 5.48487 8.56518C5.69213 8.17285 5.64846 7.68353 5.33309 7.3714C4.95492 6.99711 4.96937 6.38182 5.36468 6.02568L6.25695 5.22184C6.6199 4.89487 7.17632 4.91304 7.51716 5.26298C7.81837 5.57224 8.29298 5.62146 8.67813 5.42644C8.9706 5.27835 9.27429 5.14921 9.58758 5.04062C10.0338 4.88595 10.3636 4.4836 10.3636 4.0113C10.3636 3.45277 10.8164 3 11.3749 3ZM12 17C14.7614 17 17 14.7614 17 12C17 9.23858 14.7614 7 12 7C9.23858 7 7 9.23858 7 12C7 14.7614 9.23858 17 12 17Z"/>
</mask>
<path d="M14.4124 5.04062L13.7575 6.93034V6.93034L14.4124 5.04062ZM15.3219 5.42644L14.4184 7.21075L14.4184 7.21075L15.3219 5.42644ZM16.4828 5.26298L17.9156 6.65844L17.9156 6.65843L16.4828 5.26298ZM17.743 5.22184L16.4044 6.70777L16.4044 6.70777L17.743 5.22184ZM18.6353 6.02568L17.2967 7.51161L17.2967 7.51161L18.6353 6.02568ZM18.6669 7.3714L20.0738 8.79289L20.0738 8.79289L18.6669 7.3714ZM18.5151 8.56518L20.2835 7.63095L20.2835 7.63094L18.5151 8.56518ZM18.9594 9.58757L20.8491 8.9326V8.9326L18.9594 9.58757ZM19.9887 13.6364V11.6364H19.9887L19.9887 13.6364ZM18.9594 14.4124L20.8491 15.0674V15.0674L18.9594 14.4124ZM18.1347 16.0743L19.7997 17.1824L19.7997 17.1823L18.1347 16.0743ZM18.1364 16.0909L19.5506 14.6767L19.5504 14.6765L18.1364 16.0909ZM18.1889 16.1435L16.7747 17.5577L16.7747 17.5577L18.1889 16.1435ZM18.0874 18.3817L16.807 16.8453L18.0874 18.3817ZM17.5188 18.8556L18.7991 20.392L18.7991 20.392L17.5188 18.8556ZM16.4077 18.7484L14.8574 20.012L14.8574 20.012L16.4077 18.7484ZM15.3588 18.5547L14.4453 16.7755L15.3588 18.5547ZM14.4124 18.9594L13.7575 17.0697H13.7575L14.4124 18.9594ZM10.3636 19.9887L12.3636 19.9887L10.3636 19.9887ZM9.58758 18.9594L8.93261 20.8491H8.93262L9.58758 18.9594ZM8.72386 18.5965L9.61486 16.8059L9.61486 16.8059L8.72386 18.5965ZM7.43232 18.7213L8.73283 20.2407H8.73283L7.43232 18.7213ZM5.98329 18.6651L7.3975 17.2509H7.3975L5.98329 18.6651ZM5.31365 17.9955L3.89944 19.4097L3.89944 19.4097L5.31365 17.9955ZM5.31714 16.6444L6.72404 18.0659L6.72404 18.0659L5.31714 16.6444ZM5.47441 15.415L7.24565 14.4861L7.24565 14.4861L5.47441 15.415ZM5.04063 14.4124L6.93034 13.7575H6.93034L5.04063 14.4124ZM5.04063 9.58757L3.15091 8.9326H3.15091L5.04063 9.58757ZM5.48487 8.56518L3.71648 7.63094L3.71648 7.63094L5.48487 8.56518ZM5.33309 7.3714L6.74 5.94991L6.74 5.94991L5.33309 7.3714ZM5.36468 6.02568L4.02602 4.53975L4.02602 4.53975L5.36468 6.02568ZM6.25695 5.22184L7.59562 6.70777L7.59562 6.70777L6.25695 5.22184ZM7.51716 5.26298L8.94989 3.86753L8.94989 3.86753L7.51716 5.26298ZM8.67813 5.42644L7.77466 3.64213L7.77466 3.64213L8.67813 5.42644ZM9.58758 5.04062L8.93262 3.15091L8.93262 3.15091L9.58758 5.04062ZM12.6251 1H11.3749V5H12.6251V1ZM15.6364 4.0113C15.6364 2.3482 14.2882 1 12.6251 1V5C12.079 5 11.6364 4.55735 11.6364 4.0113H15.6364ZM15.0674 3.15091C15.302 3.23222 15.6364 3.507 15.6364 4.0113H11.6364C11.6364 5.46021 12.6303 6.53969 13.7575 6.93034L15.0674 3.15091ZM16.2253 3.64213C15.8531 3.45367 15.4665 3.28923 15.0674 3.15091L13.7575 6.93034C13.985 7.00919 14.2057 7.10303 14.4184 7.21075L16.2253 3.64213ZM15.0501 3.86753C15.4392 3.46807 15.9382 3.49674 16.2253 3.64213L14.4184 7.21075C15.4759 7.74617 16.9241 7.67642 17.9156 6.65844L15.0501 3.86753ZM19.0817 3.73591C17.9206 2.68988 16.1405 2.748 15.0501 3.86753L17.9156 6.65843C17.5068 7.07808 16.8396 7.09986 16.4044 6.70777L19.0817 3.73591ZM19.974 4.53975L19.0817 3.73591L16.4044 6.70777L17.2967 7.51161L19.974 4.53975ZM20.0738 8.79289C21.269 7.60994 21.2234 5.66532 19.974 4.53975L17.2967 7.51161C16.8379 7.09832 16.8211 6.38428 17.26 5.94991L20.0738 8.79289ZM20.2835 7.63094C20.4296 7.90748 20.4691 8.40166 20.0738 8.79289L17.26 5.94991C16.234 6.96541 16.1861 8.43822 16.7467 9.49942L20.2835 7.63094ZM20.8491 8.9326C20.6929 8.4819 20.5033 8.04702 20.2835 7.63095L16.7467 9.49942C16.8724 9.73733 16.9806 9.9856 17.0697 10.2425L20.8491 8.9326ZM19.9887 8.36364C20.493 8.36364 20.7678 8.69803 20.8491 8.9326L17.0697 10.2425C17.4603 11.3696 18.5398 12.3636 19.9887 12.3636V8.36364ZM23 11.3749C23 9.71184 21.6518 8.36364 19.9887 8.36364V12.3636C19.4427 12.3636 19 11.921 19 11.3749H23ZM23 12.6251V11.3749H19V12.6251H23ZM19.9887 15.6364C21.6518 15.6364 23 14.2882 23 12.6251H19C19 12.079 19.4427 11.6364 19.9887 11.6364V15.6364ZM20.8491 15.0674C20.7678 15.302 20.493 15.6364 19.9887 15.6364L19.9887 11.6364C18.5398 11.6364 17.4603 12.6304 17.0697 13.7575L20.8491 15.0674ZM19.7997 17.1823C20.2332 16.531 20.5878 15.8214 20.8491 15.0674L17.0697 13.7575C16.9207 14.1872 16.7182 14.5928 16.4697 14.9663L19.7997 17.1823ZM19.5504 14.6765C20.2208 15.3468 20.3234 16.3956 19.7997 17.1824L16.4698 14.9662C15.9391 15.7635 16.043 16.8262 16.7223 17.5053L19.5504 14.6765ZM19.6031 14.7293L19.5506 14.6767L16.7221 17.5051L16.7747 17.5577L19.6031 14.7293ZM19.3677 19.9182C20.9566 18.5942 21.0656 16.1917 19.6031 14.7292L16.7747 17.5577C16.5739 17.3569 16.5889 17.0271 16.807 16.8453L19.3677 19.9182ZM18.7991 20.392L19.3677 19.9182L16.807 16.8453L16.2384 17.3191L18.7991 20.392ZM14.8574 20.012C15.8366 21.2135 17.6084 21.3843 18.7991 20.392L16.2384 17.3191C16.7579 16.8862 17.5308 16.9608 17.958 17.4849L14.8574 20.012ZM16.2724 20.3339C15.8911 20.5297 15.2727 20.5216 14.8574 20.012L17.958 17.4849C17.0387 16.3569 15.5363 16.2153 14.4453 16.7755L16.2724 20.3339ZM15.0674 20.8491C15.4833 20.7049 15.8857 20.5324 16.2724 20.3339L14.4453 16.7755C14.2243 16.889 13.9946 16.9875 13.7575 17.0697L15.0674 20.8491ZM15.6364 19.9887C15.6364 20.493 15.302 20.7678 15.0674 20.8491L13.7575 17.0697C12.6303 17.4603 11.6364 18.5398 11.6364 19.9887H15.6364ZM12.6251 23C14.2882 23 15.6364 21.6518 15.6364 19.9887H11.6364C11.6364 19.4427 12.079 19 12.6251 19V23ZM11.3749 23H12.6251V19H11.3749V23ZM8.36364 19.9887C8.36364 21.6518 9.71184 23 11.3749 23V19C11.921 19 12.3636 19.4427 12.3636 19.9887L8.36364 19.9887ZM8.93262 20.8491C8.69801 20.7678 8.36364 20.493 8.36364 19.9887L12.3636 19.9887C12.3636 18.5398 11.3697 17.4603 10.2425 17.0697L8.93262 20.8491ZM7.83286 20.3871C8.18713 20.5634 8.55431 20.718 8.93261 20.8491L10.2425 17.0697C10.0269 16.9949 9.81731 16.9067 9.61486 16.8059L7.83286 20.3871ZM8.73283 20.2407C8.38991 20.5342 8.017 20.4787 7.83287 20.3871L9.61486 16.8059C8.58792 16.2949 7.1899 16.2962 6.1318 17.2018L8.73283 20.2407ZM4.56907 20.0793C5.70191 21.2122 7.51572 21.2824 8.73283 20.2407L6.1318 17.2018C6.50178 16.8852 7.05314 16.9065 7.3975 17.2509L4.56907 20.0793ZM3.89944 19.4097L4.56907 20.0793L7.3975 17.2509L6.72787 16.5813L3.89944 19.4097ZM3.91023 15.2229C2.74689 16.3743 2.74205 18.2523 3.89944 19.4097L6.72787 16.5813C7.13827 16.9917 7.13656 17.6576 6.72404 18.0659L3.91023 15.2229ZM3.70317 16.3438C3.56671 16.0836 3.52351 15.6057 3.91023 15.2229L6.72404 18.0659C7.76003 17.0405 7.80635 15.5554 7.24565 14.4861L3.70317 16.3438ZM3.15091 15.0674C3.30396 15.509 3.48901 15.9354 3.70317 16.3438L7.24565 14.4861C7.1232 14.2526 7.01759 14.0092 6.93034 13.7575L3.15091 15.0674ZM4.0113 15.6364C3.50698 15.6364 3.23222 15.302 3.15091 15.0674L6.93034 13.7575C6.53969 12.6304 5.46023 11.6364 4.0113 11.6364V15.6364ZM1 12.6251C1 14.2882 2.3482 15.6364 4.0113 15.6364V11.6364C4.55735 11.6364 5 12.079 5 12.6251H1ZM1 11.3749V12.6251H5V11.3749H1ZM4.0113 8.36364C2.3482 8.36364 1 9.71184 1 11.3749H5C5 11.921 4.55734 12.3636 4.0113 12.3636V8.36364ZM3.15091 8.9326C3.23222 8.69803 3.50698 8.36364 4.0113 8.36364V12.3636C5.46023 12.3636 6.5397 11.3696 6.93034 10.2425L3.15091 8.9326ZM3.71648 7.63094C3.49666 8.04702 3.30712 8.4819 3.15091 8.9326L6.93034 10.2425C7.0194 9.9856 7.12756 9.73734 7.25326 9.49942L3.71648 7.63094ZM3.92619 8.79289C3.53091 8.40166 3.57038 7.90748 3.71648 7.63094L7.25325 9.49942C7.81389 8.43821 7.76602 6.96541 6.74 5.94991L3.92619 8.79289ZM4.02602 4.53975C2.77663 5.66532 2.73098 7.60994 3.92619 8.79289L6.74 5.94991C7.17886 6.38428 7.1621 7.09832 6.70334 7.51161L4.02602 4.53975ZM4.91829 3.73591L4.02602 4.53975L6.70334 7.51161L7.59562 6.70777L4.91829 3.73591ZM8.94989 3.86753C7.85948 2.74799 6.0794 2.68988 4.91829 3.73591L7.59562 6.70777C7.16039 7.09986 6.49315 7.07808 6.08443 6.65843L8.94989 3.86753ZM7.77466 3.64213C8.06181 3.49674 8.56082 3.46807 8.94989 3.86753L6.08443 6.65843C7.07593 7.67642 8.52415 7.74617 9.58159 7.21075L7.77466 3.64213ZM8.93262 3.15091C8.53354 3.28923 8.14687 3.45367 7.77466 3.64213L9.58159 7.21075C9.79433 7.10303 10.015 7.00919 10.2425 6.93034L8.93262 3.15091ZM8.36364 4.0113C8.36364 3.507 8.69801 3.23222 8.93262 3.15091L10.2425 6.93034C11.3697 6.53969 12.3636 5.46021 12.3636 4.0113H8.36364ZM11.3749 1C9.71184 1 8.36364 2.3482 8.36364 4.0113H12.3636C12.3636 4.55734 11.921 5 11.3749 5V1ZM15 12C15 13.6569 13.6569 15 12 15V19C15.866 19 19 15.866 19 12H15ZM12 9C13.6569 9 15 10.3431 15 12H19C19 8.13401 15.866 5 12 5V9ZM9 12C9 10.3431 10.3431 9 12 9V5C8.13401 5 5 8.13401 5 12H9ZM12 15C10.3431 15 9 13.6569 9 12H5C5 15.866 8.13401 19 12 19V15Z" fill="black" mask="url(#path-1-outside-1_11_5)"/>
</svg>
