<svg width="24" height="24" viewBox="0 0 24 24" fill="none" xmlns="http://www.w3.org/2000/svg">
<path fill-rule="evenodd" clip-rule="evenodd" d="M3.7072 19.8121C4.09772 20.2026 4.73089 20.2026 5.12141 19.8121L11.9121 13.0214L18.8336 19.9429C19.2241 20.3334 19.8573 20.3334 20.2478 19.9429C20.6383 19.5524 20.6383 18.9192 20.2478 18.5287L13.3263 11.6072L19.8124 5.12117C20.2029 4.73064 20.2029 4.09748 19.8124 3.70696C19.4218 3.31643 18.7887 3.31643 18.3981 3.70696L11.9121 10.193L5.55687 3.83774C5.16634 3.44722 4.53318 3.44722 4.14265 3.83774C3.75213 4.22827 3.75213 4.86143 4.14265 5.25196L10.4979 11.6072L3.7072 18.3979C3.31668 18.7884 3.31668 19.4216 3.7072 19.8121Z" fill="black"/>
</svg>
