<svg width="24" height="24" viewBox="0 0 24 24" fill="none" xmlns="http://www.w3.org/2000/svg">
<path fill-rule="evenodd" clip-rule="evenodd" d="M13.7 9.1V6.6C13.7 5.71634 12.9837 5 12.1 5C11.2163 5 10.5 5.71634 10.5 6.6V9.1H13.7ZM12.1 3C10.1118 3 8.5 4.61177 8.5 6.6V9.1V9.3H6C4.89543 9.3 4 10.1954 4 11.3V19C4 20.1046 4.89543 21 6 21H18.2C19.3046 21 20.2 20.1046 20.2 19V11.3C20.2 10.1954 19.3046 9.3 18.2 9.3H15.7V9.1V6.6C15.7 4.61177 14.0882 3 12.1 3ZM5.8 11.1H8.5V11.1H10.5H13.7H15.7V11.1H18.4V19.2H5.8V11.1ZM13.9 14.7C13.9 15.3663 13.538 15.948 13 16.2592V17.4001H11.2V16.2592C10.662 15.9479 10.3 15.3662 10.3 14.7C10.3 13.7059 11.1059 12.9 12.1 12.9C13.0941 12.9 13.9 13.7059 13.9 14.7Z" fill="black"/>
</svg>
